<svg id="svg" version="1.1" xmlns="http://www.w3.org/2000/svg" xmlns:xlink="http://www.w3.org/1999/xlink" width="400" height="400" viewBox="0, 0, 400,400"><g id="svgg"><path id="path0" d="M329.600 237.100 C 329.600 237.412,329.814 237.595,330.075 237.508 C 330.800 237.267,330.903 236.533,330.211 236.533 C 329.875 236.533,329.600 236.788,329.600 237.100 M333.689 242.623 C 332.444 243.494,332.518 245.089,333.831 245.687 C 335.761 246.566,337.311 244.168,335.793 242.650 C 334.989 241.846,334.801 241.844,333.689 242.623 M336.000 244.187 C 336.000 245.316,334.663 245.916,333.781 245.184 C 333.029 244.560,333.047 244.032,333.850 243.144 C 334.701 242.205,336.000 242.835,336.000 244.187 M339.500 243.232 C 338.561 243.779,338.613 245.307,339.602 246.201 C 340.756 247.246,342.400 246.475,342.400 244.889 C 342.400 243.030,341.111 242.294,339.500 243.232 M341.520 243.680 C 342.755 244.915,341.484 246.834,340.031 245.927 C 338.783 245.147,339.189 243.200,340.600 243.200 C 340.842 243.200,341.256 243.416,341.520 243.680 M80.400 286.000 C 80.400 318.518,80.482 324.000,80.967 324.000 C 81.278 324.000,81.593 323.858,81.667 323.683 C 81.935 323.047,84.638 321.287,86.031 320.841 C 88.317 320.110,92.000 322.282,92.000 324.362 C 92.000 324.603,92.151 324.800,92.336 324.800 C 93.722 324.800,93.851 330.517,92.506 332.365 C 90.055 335.735,82.800 335.894,82.800 332.578 C 82.800 331.601,81.468 329.200,80.926 329.200 C 80.519 329.200,80.400 330.335,80.400 334.200 C 80.400 337.267,80.555 339.200,80.800 339.200 C 81.020 339.200,81.200 340.108,81.200 341.218 C 81.200 342.838,81.398 343.434,82.200 344.236 C 82.750 344.786,83.200 345.498,83.200 345.818 C 83.200 346.138,83.468 346.400,83.795 346.400 C 84.122 346.400,85.571 347.570,87.015 349.000 C 88.459 350.430,89.901 351.600,90.220 351.600 C 90.539 351.600,90.800 351.780,90.800 352.000 C 90.800 352.220,91.070 352.400,91.400 352.400 C 91.730 352.400,92.000 352.593,92.000 352.829 C 92.000 353.442,93.042 354.400,93.709 354.400 C 94.021 354.400,94.602 354.760,95.000 355.200 C 95.398 355.640,96.056 356.000,96.462 356.000 C 96.868 356.000,97.200 356.180,97.200 356.400 C 97.200 356.620,97.481 356.800,97.824 356.800 C 98.167 356.800,98.348 356.961,98.226 357.158 C 97.942 357.618,98.943 358.000,100.433 358.000 C 101.075 358.000,101.600 358.180,101.600 358.400 C 101.600 358.620,101.949 358.800,102.376 358.800 C 102.803 358.800,103.264 358.980,103.400 359.200 C 103.536 359.420,104.807 359.600,106.224 359.600 C 107.675 359.600,108.800 359.775,108.800 360.000 C 108.800 361.351,110.426 360.251,110.836 358.623 C 111.950 354.198,118.903 350.243,122.605 351.929 C 123.173 352.188,124.160 352.400,124.799 352.400 C 129.763 352.400,136.068 356.206,136.619 359.534 C 136.753 360.340,136.921 361.196,136.994 361.435 C 137.270 362.349,201.600 362.912,201.600 362.000 C 201.600 361.780,202.575 361.600,203.767 361.600 C 207.414 361.600,207.200 362.090,207.200 353.734 C 207.200 348.915,207.339 346.439,207.600 346.600 C 207.820 346.736,208.000 346.657,208.000 346.424 C 208.000 346.191,207.820 346.000,207.600 346.000 C 207.380 346.000,207.200 345.280,207.200 344.400 C 207.200 343.520,207.041 342.800,206.847 342.800 C 206.652 342.800,206.399 342.440,206.284 342.000 C 206.169 341.560,205.775 341.200,205.409 341.200 C 205.043 341.200,204.473 340.930,204.143 340.600 C 203.759 340.216,202.771 340.000,201.395 340.000 C 200.214 340.000,199.136 339.820,199.000 339.600 C 198.845 339.350,195.131 339.212,189.076 339.232 C 183.754 339.249,179.615 339.351,179.878 339.458 C 180.795 339.831,177.337 345.124,174.903 347.073 C 170.878 350.297,165.668 350.325,158.430 347.162 C 156.018 346.109,155.093 344.787,154.982 342.239 C 154.933 341.117,154.851 340.110,154.799 340.000 C 154.747 339.890,154.727 339.665,154.753 339.500 C 154.779 339.335,153.810 339.200,152.600 339.200 C 151.360 339.200,150.400 339.379,150.400 339.611 C 150.400 339.888,146.444 339.961,138.300 339.835 C 124.713 339.624,119.200 339.317,119.200 338.771 C 119.200 338.567,117.850 338.400,116.200 338.400 C 114.467 338.400,113.200 338.231,113.200 338.000 C 113.200 337.780,112.570 337.600,111.800 337.600 C 111.030 337.600,110.400 337.440,110.400 337.243 C 110.400 337.047,109.950 336.774,109.400 336.636 C 108.850 336.498,108.400 336.198,108.400 335.969 C 108.400 335.740,108.232 335.657,108.026 335.784 C 107.820 335.911,107.198 335.562,106.644 335.008 C 106.090 334.453,105.358 334.000,105.018 334.000 C 104.678 334.000,104.400 333.820,104.400 333.600 C 104.400 333.380,104.130 333.200,103.800 333.200 C 103.470 333.200,103.200 332.930,103.200 332.600 C 103.200 332.270,103.015 332.000,102.788 332.000 C 102.512 332.000,102.384 326.310,102.400 314.700 C 102.413 305.185,102.419 296.905,102.412 296.300 C 102.401 295.277,102.281 295.199,100.700 295.186 C 93.549 295.126,87.808 283.255,90.455 274.000 C 91.256 271.201,94.737 263.864,96.481 261.301 C 98.270 258.672,102.006 257.319,102.558 259.100 C 102.677 259.485,102.691 258.920,102.588 257.844 C 102.484 256.768,102.400 254.293,102.400 252.344 L 102.400 248.800 100.624 248.800 C 99.647 248.800,98.736 248.620,98.599 248.399 C 98.434 248.131,98.103 248.131,97.602 248.399 C 96.579 248.947,94.265 248.905,93.688 248.328 C 93.326 247.966,92.978 247.984,92.189 248.406 C 91.356 248.852,90.824 248.865,89.375 248.478 C 88.392 248.215,85.971 248.000,83.994 248.000 L 80.400 248.000 80.400 286.000 M102.493 262.800 C 102.493 263.570,102.575 263.885,102.676 263.500 C 102.776 263.115,102.776 262.485,102.676 262.100 C 102.575 261.715,102.493 262.030,102.493 262.800 M102.493 268.400 C 102.493 269.170,102.575 269.485,102.676 269.100 C 102.776 268.715,102.776 268.085,102.676 267.700 C 102.575 267.315,102.493 267.630,102.493 268.400 M102.493 278.000 C 102.493 278.770,102.575 279.085,102.676 278.700 C 102.776 278.315,102.776 277.685,102.676 277.300 C 102.575 276.915,102.493 277.230,102.493 278.000 M102.493 283.200 C 102.493 283.970,102.575 284.285,102.676 283.900 C 102.776 283.515,102.776 282.885,102.676 282.500 C 102.575 282.115,102.493 282.430,102.493 283.200 M102.509 288.400 C 102.509 289.390,102.587 289.795,102.682 289.300 C 102.778 288.805,102.778 287.995,102.682 287.500 C 102.587 287.005,102.509 287.410,102.509 288.400 M102.493 293.200 C 102.493 293.970,102.575 294.285,102.676 293.900 C 102.776 293.515,102.776 292.885,102.676 292.500 C 102.575 292.115,102.493 292.430,102.493 293.200 M350.267 295.067 C 349.880 295.454,349.939 297.200,350.339 297.200 C 350.526 297.200,350.694 296.660,350.712 296.000 C 350.748 294.738,350.699 294.635,350.267 295.067 M350.061 300.000 C 350.081 302.603,350.583 302.602,350.657 299.999 C 350.688 298.900,350.563 298.000,350.380 298.000 C 350.196 298.000,350.053 298.900,350.061 300.000 M350.065 305.008 C 350.115 307.474,350.596 307.608,350.617 305.162 C 350.626 304.083,350.498 303.200,350.331 303.200 C 350.165 303.200,350.046 304.014,350.065 305.008 M350.000 311.067 C 350.000 312.763,350.467 312.576,350.662 310.802 C 350.734 310.141,350.615 309.600,350.397 309.600 C 350.178 309.600,350.000 310.260,350.000 311.067 M237.301 345.000 C 237.305 345.880,237.387 346.193,237.483 345.695 C 237.579 345.198,237.575 344.478,237.475 344.095 C 237.375 343.713,237.296 344.120,237.301 345.000 M199.970 345.945 C 200.483 346.902,199.641 348.145,198.616 347.943 C 197.496 347.723,196.938 346.597,197.572 345.834 C 198.282 344.978,199.483 345.034,199.970 345.945 M237.301 349.400 C 237.305 350.280,237.387 350.593,237.483 350.095 C 237.579 349.598,237.575 348.878,237.475 348.495 C 237.375 348.113,237.296 348.520,237.301 349.400 M199.228 351.834 C 199.938 352.690,199.224 353.800,197.962 353.800 C 196.983 353.800,196.528 352.887,196.954 351.777 C 197.248 351.009,198.571 351.042,199.228 351.834 M236.860 354.266 C 236.562 354.589,236.430 354.964,236.566 355.100 C 236.901 355.434,237.727 354.570,237.545 354.074 C 237.465 353.856,237.157 353.942,236.860 354.266 " stroke="none" fill="#9b257d" fill-rule="evenodd"></path><path id="path1" d="M118.408 88.681 C 107.967 95.000,100.934 97.517,90.636 98.620 C 89.163 98.778,88.471 98.997,88.801 99.200 C 89.314 99.517,88.519 100.800,87.810 100.800 C 87.219 100.800,85.600 102.837,85.600 103.582 C 85.600 104.032,85.420 104.400,85.200 104.400 C 84.980 104.400,84.800 105.120,84.800 106.000 C 84.800 106.880,84.620 107.600,84.400 107.600 C 84.180 107.600,84.000 107.973,84.000 108.429 C 84.000 108.884,83.730 109.527,83.400 109.857 C 83.047 110.210,82.800 111.187,82.800 112.229 C 82.800 113.203,82.620 114.000,82.400 114.000 C 82.180 114.000,82.000 114.979,82.000 116.176 C 82.000 117.373,81.820 118.464,81.600 118.600 C 80.559 119.243,81.141 127.237,82.369 129.165 C 89.173 139.849,89.011 153.778,81.979 162.717 C 81.449 163.391,81.200 164.331,81.200 165.654 C 81.200 166.724,81.020 167.600,80.800 167.600 C 80.219 167.600,80.308 169.891,80.900 170.167 C 81.300 170.353,81.300 170.447,80.900 170.633 C 80.592 170.777,80.400 171.684,80.400 173.000 C 80.400 174.316,80.592 175.223,80.900 175.367 C 81.300 175.553,81.300 175.647,80.900 175.833 C 80.592 175.977,80.400 176.884,80.400 178.200 C 80.400 179.516,80.592 180.423,80.900 180.567 C 81.300 180.753,81.300 180.847,80.900 181.033 C 80.304 181.311,80.212 184.800,80.800 184.800 C 81.020 184.800,81.200 185.070,81.200 185.400 C 81.200 185.730,81.020 186.000,80.800 186.000 C 80.204 186.000,80.298 190.286,80.900 190.567 C 81.300 190.753,81.300 190.847,80.900 191.033 C 80.545 191.199,80.400 192.524,80.400 195.600 C 80.400 198.676,80.545 200.001,80.900 200.167 C 81.300 200.353,81.300 200.447,80.900 200.633 C 80.298 200.914,80.204 205.200,80.800 205.200 C 81.036 205.200,81.200 206.640,81.200 208.720 C 81.200 210.924,81.379 212.419,81.680 212.720 C 82.293 213.333,99.024 213.408,99.400 212.800 C 99.536 212.580,100.056 212.400,100.556 212.400 C 102.251 212.400,102.614 210.586,103.040 199.974 L 103.242 194.949 101.827 194.264 C 101.049 193.887,99.763 193.268,98.969 192.889 C 94.738 190.868,94.200 188.983,94.201 176.200 C 94.202 163.483,95.207 160.539,100.634 157.359 C 101.968 156.577,102.415 156.064,102.462 155.262 C 102.496 154.678,102.564 149.790,102.612 144.400 C 102.720 132.404,103.140 126.003,103.867 125.276 C 104.191 124.952,104.400 123.814,104.400 122.371 C 104.400 121.057,104.578 120.000,104.800 120.000 C 105.020 120.000,105.200 119.460,105.200 118.800 C 105.200 118.140,105.380 117.600,105.600 117.600 C 105.820 117.600,106.000 116.970,106.000 116.200 C 106.000 115.430,106.180 114.800,106.400 114.800 C 106.620 114.800,106.800 114.440,106.800 114.000 C 106.800 113.560,106.980 113.200,107.200 113.200 C 107.420 113.200,107.600 112.930,107.600 112.600 C 107.600 112.270,107.870 112.000,108.200 112.000 C 108.530 112.000,108.800 111.712,108.800 111.360 C 108.800 111.009,109.340 110.217,110.000 109.600 C 110.660 108.983,111.200 108.281,111.200 108.040 C 111.200 107.798,111.470 107.600,111.800 107.600 C 112.130 107.600,112.400 107.870,112.400 108.200 C 112.400 108.654,112.890 108.800,114.413 108.800 C 115.832 108.800,116.493 108.623,116.655 108.200 C 116.946 107.443,117.600 107.415,117.600 108.160 C 117.600 108.619,118.867 108.720,124.600 108.720 C 130.333 108.720,131.600 108.619,131.600 108.160 C 131.600 107.852,131.870 107.600,132.200 107.600 C 132.530 107.600,132.800 107.870,132.800 108.200 C 132.800 108.652,133.284 108.800,134.757 108.800 C 136.128 108.800,136.783 108.620,136.945 108.200 C 137.071 107.870,137.361 107.600,137.587 107.600 C 137.814 107.600,138.000 107.870,138.000 108.200 C 138.000 108.599,138.399 108.800,139.187 108.800 C 140.079 108.800,140.317 108.650,140.145 108.200 C 139.984 107.780,140.175 107.600,140.783 107.600 C 141.261 107.600,142.109 107.056,142.669 106.391 C 147.197 101.010,167.270 98.034,181.800 100.590 C 185.588 101.257,190.736 102.693,191.380 103.263 C 192.617 104.359,193.600 103.623,193.600 101.600 C 193.600 100.089,193.747 99.600,194.200 99.600 C 194.975 99.600,194.975 98.232,194.200 97.457 C 193.421 96.678,193.421 95.200,194.200 95.200 C 194.876 95.200,194.979 93.425,194.543 89.259 L 194.286 86.800 157.843 86.835 L 121.400 86.870 118.408 88.681 M231.867 94.667 C 231.455 95.078,231.551 96.723,232.004 97.002 C 232.788 97.487,234.000 96.767,234.000 95.816 C 234.000 94.714,232.583 93.950,231.867 94.667 M231.300 100.660 C 230.599 100.949,230.675 102.666,231.400 102.945 C 232.468 103.354,233.251 102.766,233.122 101.652 C 233.003 100.630,232.300 100.247,231.300 100.660 M91.863 203.110 C 92.179 204.368,91.596 205.359,90.437 205.531 C 88.524 205.815,87.624 203.389,89.226 202.267 C 90.341 201.486,91.553 201.873,91.863 203.110 M97.520 202.880 C 98.361 203.721,98.106 205.586,97.100 205.960 C 96.126 206.322,95.173 206.111,94.706 205.429 C 93.529 203.710,96.059 201.419,97.520 202.880 M333.850 243.144 C 333.047 244.032,333.029 244.560,333.781 245.184 C 334.663 245.916,336.000 245.316,336.000 244.187 C 336.000 242.835,334.701 242.205,333.850 243.144 M339.680 243.680 C 338.516 244.844,340.175 247.017,341.431 245.974 C 342.440 245.137,341.860 243.200,340.600 243.200 C 340.358 243.200,339.944 243.416,339.680 243.680 M197.572 345.834 C 197.191 346.293,197.162 346.650,197.466 347.134 C 198.063 348.081,199.258 348.208,199.858 347.388 C 200.968 345.870,198.778 344.380,197.572 345.834 M196.954 351.777 C 196.528 352.887,196.983 353.800,197.962 353.800 C 199.224 353.800,199.938 352.690,199.228 351.834 C 198.571 351.042,197.248 351.009,196.954 351.777 " stroke="none" fill="#2c2499" fill-rule="evenodd"></path><path id="path2" d="M103.400 86.000 C 103.264 86.220,102.443 86.400,101.576 86.400 C 100.709 86.400,100.000 86.580,100.000 86.800 C 100.000 87.020,99.745 87.200,99.433 87.200 C 98.790 87.200,92.000 93.785,92.000 94.409 C 92.000 94.632,91.370 95.426,90.600 96.174 C 88.571 98.144,88.716 98.839,91.100 98.571 C 101.116 97.445,107.673 95.073,118.563 88.634 L 121.666 86.800 158.033 86.800 L 194.400 86.800 194.400 88.400 C 194.400 89.556,194.567 90.000,195.000 90.000 C 195.461 90.000,195.600 89.489,195.600 87.800 L 195.600 85.600 149.624 85.600 C 119.404 85.600,103.562 85.737,103.400 86.000 M231.200 86.075 C 231.200 86.254,232.111 86.400,233.224 86.400 C 234.525 86.400,235.155 86.251,234.990 85.983 C 234.692 85.502,231.200 85.586,231.200 86.075 M236.400 86.000 C 236.400 86.220,237.210 86.400,238.200 86.400 C 239.190 86.400,240.000 86.220,240.000 86.000 C 240.000 85.780,239.190 85.600,238.200 85.600 C 237.210 85.600,236.400 85.780,236.400 86.000 M241.800 86.000 C 241.649 86.245,242.270 86.400,243.400 86.400 C 244.530 86.400,245.151 86.245,245.000 86.000 C 244.864 85.780,244.144 85.600,243.400 85.600 C 242.656 85.600,241.936 85.780,241.800 86.000 M246.400 85.980 C 246.400 86.217,247.271 86.400,248.400 86.400 C 249.500 86.400,250.400 86.252,250.400 86.071 C 250.400 85.891,249.500 85.702,248.400 85.652 C 247.213 85.598,246.400 85.731,246.400 85.980 M251.800 86.000 C 251.651 86.242,252.196 86.400,253.176 86.400 C 254.069 86.400,254.800 86.220,254.800 86.000 C 254.800 85.780,254.181 85.600,253.424 85.600 C 252.667 85.600,251.936 85.780,251.800 86.000 M257.000 86.000 C 256.851 86.242,257.396 86.400,258.376 86.400 C 259.269 86.400,260.000 86.220,260.000 86.000 C 260.000 85.780,259.381 85.600,258.624 85.600 C 257.867 85.600,257.136 85.780,257.000 86.000 M261.200 86.000 C 261.200 86.220,262.145 86.397,263.300 86.394 C 264.803 86.389,265.230 86.278,264.800 86.000 C 264.008 85.488,261.200 85.488,261.200 86.000 M266.800 86.000 C 266.800 86.220,267.520 86.400,268.400 86.400 C 269.280 86.400,270.000 86.220,270.000 86.000 C 270.000 85.780,269.280 85.600,268.400 85.600 C 267.520 85.600,266.800 85.780,266.800 86.000 M271.200 86.000 C 271.200 86.220,272.100 86.400,273.200 86.400 C 274.300 86.400,275.200 86.220,275.200 86.000 C 275.200 85.780,274.300 85.600,273.200 85.600 C 272.100 85.600,271.200 85.780,271.200 86.000 M275.600 85.962 C 275.600 86.716,296.264 87.086,306.100 86.509 C 314.933 85.990,308.962 85.586,292.800 85.608 C 283.340 85.622,275.600 85.781,275.600 85.962 M295.621 92.578 C 294.195 94.096,294.954 96.211,297.078 96.636 C 299.389 97.098,300.810 94.534,299.377 92.489 C 298.535 91.286,296.796 91.327,295.621 92.578 M253.023 96.089 C 252.173 97.302,252.241 98.641,253.200 99.600 C 255.473 101.873,258.751 98.377,256.588 95.987 C 255.619 94.916,253.808 94.968,253.023 96.089 M159.628 100.207 C 149.191 101.804,141.044 105.467,142.380 107.962 C 142.975 109.074,146.136 109.173,146.780 108.100 C 147.180 107.433,147.220 107.433,147.620 108.100 C 148.171 109.018,151.200 109.103,151.200 108.200 C 151.200 107.870,151.481 107.600,151.824 107.600 C 152.167 107.600,152.348 107.761,152.226 107.958 C 151.918 108.457,152.980 108.800,154.833 108.800 C 155.959 108.800,156.400 108.631,156.400 108.200 C 156.400 107.870,156.651 107.600,156.957 107.600 C 157.264 107.600,157.618 107.870,157.745 108.200 C 157.896 108.594,158.520 108.800,159.559 108.800 C 160.434 108.800,161.412 108.531,161.743 108.200 C 162.493 107.450,162.800 107.440,162.800 108.164 C 162.800 109.058,171.064 108.954,171.606 108.053 C 171.967 107.455,172.035 107.459,172.420 108.100 C 172.971 109.018,176.311 109.097,176.655 108.200 C 176.782 107.870,177.136 107.600,177.443 107.600 C 177.749 107.600,178.000 107.870,178.000 108.200 C 178.000 108.633,178.444 108.800,179.600 108.800 C 180.756 108.800,181.200 108.633,181.200 108.200 C 181.200 107.870,181.451 107.600,181.757 107.600 C 182.064 107.600,182.418 107.870,182.545 108.200 C 182.889 109.097,186.229 109.018,186.780 108.100 C 187.180 107.433,187.220 107.433,187.620 108.100 C 188.151 108.985,190.892 109.051,191.743 108.200 C 192.073 107.870,192.626 107.600,192.971 107.600 C 193.384 107.600,193.600 107.237,193.600 106.544 C 193.600 105.963,193.897 105.271,194.259 105.006 C 194.727 104.664,194.841 104.216,194.651 103.462 C 194.368 102.332,193.600 101.994,193.600 103.000 C 193.600 103.649,192.026 103.836,191.380 103.263 C 188.474 100.689,168.831 98.798,159.628 100.207 M279.689 101.823 C 277.771 103.166,278.999 106.400,281.427 106.400 C 283.366 106.400,284.375 103.225,282.869 101.862 C 281.952 101.032,280.837 101.019,279.689 101.823 M335.275 105.616 C 334.143 106.671,334.162 108.037,335.326 109.130 C 337.078 110.776,339.600 109.779,339.600 107.439 C 339.600 105.017,337.065 103.948,335.275 105.616 M140.100 108.100 C 140.192 108.375,140.507 108.600,140.800 108.600 C 141.093 108.600,141.408 108.375,141.500 108.100 C 141.599 107.803,141.316 107.600,140.800 107.600 C 140.284 107.600,140.001 107.803,140.100 108.100 M350.000 153.920 C 350.000 188.480,349.888 199.152,349.520 199.520 C 349.227 199.813,347.783 200.002,345.820 200.006 C 343.593 200.010,342.785 200.132,343.200 200.400 C 343.530 200.613,345.375 200.791,347.300 200.794 L 350.800 200.800 350.800 154.800 C 350.800 124.400,350.664 108.800,350.400 108.800 C 350.136 108.800,350.000 124.107,350.000 153.920 M334.378 125.138 C 333.226 126.070,333.132 128.269,334.210 129.057 C 336.967 131.073,340.027 127.338,337.346 125.229 C 336.050 124.209,335.543 124.194,334.378 125.138 M80.408 145.784 C 80.419 157.831,80.572 165.259,80.813 165.408 C 81.026 165.540,81.200 165.211,81.200 164.678 C 81.200 164.144,81.551 163.262,81.979 162.717 C 86.146 157.420,88.234 148.809,87.052 141.800 C 86.158 136.504,86.034 136.111,84.094 132.400 C 83.116 130.530,82.020 128.421,81.658 127.713 C 81.296 127.005,80.863 126.420,80.695 126.413 C 80.527 126.406,80.398 135.123,80.408 145.784 M341.182 141.021 C 339.816 142.667,340.910 145.200,342.987 145.200 C 345.199 145.200,346.375 142.855,345.043 141.100 C 344.372 140.216,341.893 140.165,341.182 141.021 M102.428 155.262 C 102.406 156.081,101.996 156.561,100.634 157.359 C 95.207 160.539,94.202 163.483,94.201 176.200 C 94.200 190.238,94.476 190.922,101.400 194.035 C 102.060 194.332,102.735 194.640,102.900 194.720 C 103.320 194.925,103.222 155.981,102.800 155.000 C 102.492 154.282,102.453 154.309,102.428 155.262 M334.889 155.823 C 333.097 157.078,334.294 160.400,336.538 160.400 C 338.556 160.400,339.615 157.261,338.069 155.862 C 337.152 155.032,336.037 155.019,334.889 155.823 M80.400 167.000 C 80.400 167.330,80.580 167.600,80.800 167.600 C 81.020 167.600,81.200 167.330,81.200 167.000 C 81.200 166.670,81.020 166.400,80.800 166.400 C 80.580 166.400,80.400 166.670,80.400 167.000 M342.399 184.801 C 341.288 185.912,341.490 187.490,342.875 188.520 C 345.081 190.159,347.711 187.667,346.349 185.228 C 345.576 183.844,343.573 183.627,342.399 184.801 M333.689 185.823 C 331.859 187.104,332.980 190.400,335.245 190.400 C 335.611 190.400,336.276 190.085,336.721 189.700 C 339.277 187.490,336.457 183.884,333.689 185.823 M89.226 202.267 C 87.624 203.389,88.524 205.815,90.437 205.531 C 91.596 205.359,92.179 204.368,91.863 203.110 C 91.553 201.873,90.341 201.486,89.226 202.267 M95.029 203.029 C 93.466 204.591,94.989 206.745,97.100 205.960 C 97.743 205.721,98.000 205.302,98.000 204.493 C 98.000 202.537,96.339 201.718,95.029 203.029 M338.400 235.200 C 338.400 235.420,339.041 235.600,339.824 235.600 C 340.671 235.600,341.147 235.438,341.000 235.200 C 340.864 234.980,340.223 234.800,339.576 234.800 C 338.929 234.800,338.400 234.980,338.400 235.200 M343.000 235.200 C 342.853 235.438,343.329 235.600,344.176 235.600 C 344.959 235.600,345.600 235.420,345.600 235.200 C 345.600 234.980,345.071 234.800,344.424 234.800 C 343.777 234.800,343.136 234.980,343.000 235.200 M331.000 236.000 C 330.851 236.242,331.396 236.400,332.376 236.400 C 333.269 236.400,334.000 236.220,334.000 236.000 C 334.000 235.780,333.381 235.600,332.624 235.600 C 331.867 235.600,331.136 235.780,331.000 236.000 M328.800 238.200 C 328.800 238.750,328.980 239.200,329.200 239.200 C 329.420 239.200,329.600 238.750,329.600 238.200 C 329.600 237.650,329.420 237.200,329.200 237.200 C 328.980 237.200,328.800 237.650,328.800 238.200 M328.199 241.906 C 327.488 242.426,327.467 244.400,328.171 244.400 C 328.623 244.400,328.800 244.006,328.800 243.000 C 328.800 241.484,328.793 241.471,328.199 241.906 M98.716 259.020 C 96.719 260.105,91.963 268.727,90.455 274.000 C 87.808 283.255,93.549 295.126,100.700 295.186 L 102.400 295.200 102.400 276.800 L 102.400 258.400 101.100 258.416 C 100.385 258.425,99.312 258.697,98.716 259.020 M328.178 304.835 C 328.031 305.074,328.110 305.470,328.355 305.715 C 328.682 306.042,328.800 305.926,328.800 305.280 C 328.800 304.314,328.592 304.165,328.178 304.835 M85.755 320.930 C 84.284 321.485,81.607 323.271,81.603 323.700 C 81.601 323.865,81.330 324.000,81.000 324.000 C 80.528 324.000,80.400 324.556,80.400 326.600 C 80.400 328.482,80.545 329.200,80.926 329.200 C 81.468 329.200,82.800 331.601,82.800 332.578 C 82.800 335.894,90.055 335.735,92.506 332.365 C 93.851 330.517,93.722 324.800,92.336 324.800 C 92.151 324.800,92.000 324.603,92.000 324.362 C 92.000 323.444,90.276 321.559,88.918 320.991 C 87.289 320.311,87.392 320.313,85.755 320.930 M154.656 339.477 C 154.527 339.606,154.548 339.911,154.703 340.156 C 154.858 340.400,155.004 341.427,155.027 342.439 C 155.175 348.758,168.825 351.941,174.903 347.073 C 177.599 344.914,180.793 339.836,179.716 339.423 C 178.907 339.113,154.969 339.164,154.656 339.477 M236.667 341.067 C 236.239 341.494,236.351 354.400,236.782 354.400 C 237.005 354.400,237.213 351.567,237.282 347.599 C 237.393 341.191,237.320 340.413,236.667 341.067 M207.200 353.400 C 207.200 357.996,207.339 360.361,207.600 360.200 C 207.840 360.051,208.000 357.337,208.000 353.400 C 208.000 349.463,207.840 346.749,207.600 346.600 C 207.339 346.439,207.200 348.804,207.200 353.400 M118.000 352.155 C 113.626 353.350,111.618 355.303,110.651 359.300 C 110.400 360.336,110.463 360.400,111.743 360.400 C 112.491 360.400,113.299 360.638,113.540 360.928 C 113.781 361.218,114.897 361.498,116.019 361.549 C 117.141 361.600,118.507 361.813,119.056 362.021 C 119.604 362.230,121.300 362.400,122.826 362.400 C 124.409 362.400,125.600 362.572,125.600 362.800 C 125.600 363.307,150.659 363.352,150.972 362.845 C 151.363 362.213,149.514 362.011,143.287 362.005 C 138.751 362.001,137.135 361.871,137.019 361.500 C 136.933 361.225,136.753 360.340,136.619 359.534 C 136.056 356.136,131.772 353.492,125.000 352.363 C 120.894 351.678,119.857 351.647,118.000 352.155 M235.881 356.037 C 235.061 357.677,235.742 362.596,236.800 362.674 C 237.350 362.714,237.492 362.658,237.115 362.547 C 236.549 362.382,236.410 361.746,236.315 358.874 C 236.247 356.808,236.071 355.658,235.881 356.037 M240.300 362.682 C 240.795 362.778,241.605 362.778,242.100 362.682 C 242.595 362.587,242.190 362.509,241.200 362.509 C 240.210 362.509,239.805 362.587,240.300 362.682 M250.305 362.683 C 250.802 362.779,251.522 362.775,251.905 362.675 C 252.287 362.575,251.880 362.496,251.000 362.501 C 250.120 362.505,249.807 362.587,250.305 362.683 M255.500 362.682 C 255.995 362.778,256.805 362.778,257.300 362.682 C 257.795 362.587,257.390 362.509,256.400 362.509 C 255.410 362.509,255.005 362.587,255.500 362.682 M260.500 362.676 C 260.885 362.776,261.515 362.776,261.900 362.676 C 262.285 362.575,261.970 362.493,261.200 362.493 C 260.430 362.493,260.115 362.575,260.500 362.676 M270.705 362.683 C 271.202 362.779,271.922 362.775,272.305 362.675 C 272.687 362.575,272.280 362.496,271.400 362.501 C 270.520 362.505,270.207 362.587,270.705 362.683 M280.300 362.682 C 280.795 362.778,281.605 362.778,282.100 362.682 C 282.595 362.587,282.190 362.509,281.200 362.509 C 280.210 362.509,279.805 362.587,280.300 362.682 M285.500 362.682 C 285.995 362.778,286.805 362.778,287.300 362.682 C 287.795 362.587,287.390 362.509,286.400 362.509 C 285.410 362.509,285.005 362.587,285.500 362.682 M295.505 362.683 C 296.002 362.779,296.722 362.775,297.105 362.675 C 297.487 362.575,297.080 362.496,296.200 362.501 C 295.320 362.505,295.007 362.587,295.505 362.683 M305.700 362.676 C 306.085 362.776,306.715 362.776,307.100 362.676 C 307.485 362.575,307.170 362.493,306.400 362.493 C 305.630 362.493,305.315 362.575,305.700 362.676 M310.300 362.682 C 310.795 362.778,311.605 362.778,312.100 362.682 C 312.595 362.587,312.190 362.509,311.200 362.509 C 310.210 362.509,309.805 362.587,310.300 362.682 M320.305 362.683 C 320.802 362.779,321.522 362.775,321.905 362.675 C 322.287 362.575,321.880 362.496,321.000 362.501 C 320.120 362.505,319.807 362.587,320.305 362.683 " stroke="none" fill="#96b1c0" fill-rule="evenodd"></path><path id="path3" d="M334.200 236.000 C 334.349 236.242,333.804 236.400,332.824 236.400 C 331.017 236.400,329.600 237.455,329.600 238.800 C 329.600 239.240,329.420 239.600,329.200 239.600 C 328.977 239.600,328.800 240.676,328.800 242.029 C 328.800 243.662,328.602 244.655,328.195 245.062 C 327.286 245.971,327.313 291.813,328.224 293.112 C 328.717 293.816,328.734 294.116,328.322 294.775 C 327.926 295.410,327.923 295.683,328.310 296.070 C 328.580 296.340,328.800 297.028,328.800 297.600 C 328.800 298.172,328.580 298.860,328.310 299.130 C 327.923 299.517,327.923 299.785,328.310 300.405 C 328.969 301.460,328.977 309.263,328.320 309.920 C 327.947 310.293,327.947 310.507,328.320 310.880 C 328.909 311.469,328.956 314.484,328.385 315.055 C 328.157 315.283,327.860 317.035,327.725 318.949 C 327.590 320.862,327.326 322.522,327.140 322.637 C 326.953 322.753,326.800 323.816,326.800 325.000 C 326.800 326.184,326.620 327.264,326.400 327.400 C 326.180 327.536,326.000 328.537,326.000 329.624 C 326.000 330.711,325.820 331.600,325.600 331.600 C 325.380 331.600,325.200 332.078,325.200 332.662 C 325.200 333.621,323.503 336.402,322.717 336.733 C 322.542 336.807,322.400 337.077,322.400 337.333 C 322.399 337.590,321.974 338.294,321.455 338.898 L 320.510 339.996 279.293 340.011 C 240.722 340.025,238.057 340.070,237.784 340.713 C 237.623 341.091,237.469 344.423,237.442 348.117 C 237.404 353.105,237.259 354.916,236.878 355.152 C 236.511 355.379,236.399 356.422,236.483 358.834 L 236.600 362.200 282.400 362.200 L 328.200 362.200 330.000 361.258 C 330.990 360.739,332.162 360.125,332.604 359.893 C 333.047 359.661,333.997 358.690,334.717 357.736 C 335.437 356.781,336.245 355.996,336.513 355.991 C 337.042 355.982,339.200 353.138,339.200 352.450 C 339.200 352.218,339.554 351.839,339.987 351.607 C 340.421 351.375,341.270 350.334,341.876 349.293 C 342.482 348.252,343.297 347.051,343.689 346.625 C 344.080 346.198,344.400 345.600,344.400 345.296 C 344.400 344.992,344.670 344.473,345.000 344.143 C 345.330 343.813,345.600 343.206,345.600 342.795 C 345.600 342.384,345.780 341.936,346.000 341.800 C 346.220 341.664,346.400 341.124,346.400 340.600 C 346.400 340.076,346.580 339.536,346.800 339.400 C 347.020 339.264,347.200 338.274,347.200 337.200 C 347.200 336.126,347.380 335.136,347.600 335.000 C 347.820 334.864,348.000 334.221,348.000 333.571 C 348.000 332.921,348.169 332.077,348.375 331.695 C 348.910 330.702,350.011 323.302,350.052 320.427 C 350.071 319.089,350.247 317.895,350.443 317.773 C 350.639 317.652,350.800 316.293,350.800 314.753 C 350.800 312.988,350.652 312.044,350.400 312.200 C 350.163 312.347,350.000 311.882,350.000 311.057 C 350.000 310.292,350.225 309.562,350.500 309.433 C 350.900 309.247,350.900 309.153,350.500 308.967 C 350.225 308.838,350.000 308.558,350.000 308.343 C 350.000 308.128,350.180 308.064,350.400 308.200 C 350.620 308.336,350.800 308.177,350.800 307.847 C 350.800 307.517,350.620 307.136,350.400 307.000 C 350.180 306.864,350.013 306.448,350.028 306.076 C 350.051 305.525,350.120 305.548,350.400 306.200 C 350.680 306.852,350.749 306.875,350.772 306.324 C 350.787 305.952,350.620 305.536,350.400 305.400 C 350.180 305.264,350.000 304.713,350.000 304.176 C 350.000 303.639,350.180 303.200,350.400 303.200 C 350.620 303.200,350.800 302.930,350.800 302.600 C 350.800 302.270,350.620 302.000,350.400 302.000 C 350.180 302.000,350.013 301.595,350.028 301.100 C 350.055 300.241,350.072 300.237,350.400 301.000 C 350.680 301.652,350.749 301.675,350.772 301.124 C 350.787 300.752,350.620 300.336,350.400 300.200 C 349.831 299.848,349.904 298.111,350.500 297.833 C 350.900 297.647,350.900 297.553,350.500 297.367 C 349.904 297.089,349.831 295.352,350.400 295.000 C 350.620 294.864,350.800 294.393,350.800 293.953 C 350.800 293.419,350.633 293.253,350.300 293.453 C 350.009 293.628,350.050 293.439,350.400 293.000 C 350.730 292.586,350.793 292.371,350.539 292.522 C 350.194 292.729,350.067 286.565,350.030 267.899 C 349.982 242.808,349.910 240.398,349.126 237.300 L 348.696 235.600 341.324 235.600 C 336.512 235.600,334.039 235.739,334.200 236.000 M335.793 242.650 C 337.311 244.168,335.761 246.566,333.831 245.687 C 332.518 245.089,332.444 243.494,333.689 242.623 C 334.801 241.844,334.989 241.846,335.793 242.650 M341.920 243.280 C 342.795 244.155,342.499 245.972,341.402 246.472 C 340.178 247.030,338.800 246.016,338.800 244.558 C 338.800 243.102,340.887 242.247,341.920 243.280 M102.493 253.200 C 102.493 253.970,102.575 254.285,102.676 253.900 C 102.776 253.515,102.776 252.885,102.676 252.500 C 102.575 252.115,102.493 252.430,102.493 253.200 M102.493 302.800 C 102.493 303.570,102.575 303.885,102.676 303.500 C 102.776 303.115,102.776 302.485,102.676 302.100 C 102.575 301.715,102.493 302.030,102.493 302.800 M102.493 313.600 C 102.493 314.370,102.575 314.685,102.676 314.300 C 102.776 313.915,102.776 313.285,102.676 312.900 C 102.575 312.515,102.493 312.830,102.493 313.600 M102.493 318.000 C 102.493 318.770,102.575 319.085,102.676 318.700 C 102.776 318.315,102.776 317.685,102.676 317.300 C 102.575 316.915,102.493 317.230,102.493 318.000 M102.493 323.200 C 102.493 323.970,102.575 324.285,102.676 323.900 C 102.776 323.515,102.776 322.885,102.676 322.500 C 102.575 322.115,102.493 322.430,102.493 323.200 M102.509 328.000 C 102.509 328.990,102.587 329.395,102.682 328.900 C 102.778 328.405,102.778 327.595,102.682 327.100 C 102.587 326.605,102.509 327.010,102.509 328.000 " stroke="none" fill="#eb0505" fill-rule="evenodd"></path><path id="path4" d="M234.965 85.900 C 235.184 86.288,234.179 86.400,230.485 86.400 C 226.955 86.400,225.397 86.563,224.461 87.029 L 223.200 87.659 223.200 95.006 C 223.200 99.472,223.357 102.450,223.600 102.600 C 223.820 102.736,224.000 103.659,224.000 104.652 C 224.000 107.091,224.610 107.600,227.529 107.600 C 229.280 107.600,229.976 107.759,230.145 108.200 C 230.321 108.659,231.076 108.800,233.364 108.800 C 235.008 108.800,236.464 108.980,236.600 109.200 C 236.953 109.772,240.139 109.695,240.770 109.100 C 241.194 108.700,241.337 108.700,241.483 109.100 C 241.703 109.698,245.200 109.792,245.200 109.200 C 245.200 108.980,245.650 108.800,246.200 108.800 C 246.750 108.800,247.200 108.980,247.200 109.200 C 247.200 109.420,247.920 109.600,248.800 109.600 C 249.680 109.600,250.400 109.420,250.400 109.200 C 250.400 108.980,250.670 108.800,251.000 108.800 C 251.330 108.800,251.600 108.980,251.600 109.200 C 251.600 109.420,252.320 109.600,253.200 109.600 C 254.080 109.600,254.800 109.420,254.800 109.200 C 254.800 108.980,255.250 108.800,255.800 108.800 C 256.350 108.800,256.800 108.980,256.800 109.200 C 256.800 109.792,260.297 109.698,260.517 109.100 C 260.663 108.700,260.806 108.700,261.230 109.100 C 261.906 109.737,264.889 109.751,265.520 109.120 C 265.893 108.747,266.107 108.747,266.480 109.120 C 267.059 109.699,270.000 109.766,270.000 109.200 C 270.000 108.980,270.450 108.800,271.000 108.800 C 271.550 108.800,272.000 108.980,272.000 109.200 C 272.000 109.720,275.092 109.724,275.267 109.204 C 275.347 108.964,278.284 108.789,282.705 108.760 C 289.016 108.719,290.063 108.623,290.405 108.056 C 290.768 107.453,290.834 107.457,291.220 108.100 C 291.528 108.614,292.159 108.800,293.591 108.800 C 295.112 108.800,295.582 108.646,295.724 108.100 C 295.898 107.433,295.909 107.433,295.954 108.100 C 296.016 109.043,299.897 109.133,300.255 108.200 C 300.382 107.870,300.646 107.600,300.843 107.600 C 301.039 107.600,301.200 107.870,301.200 108.200 C 301.200 108.693,301.911 108.800,305.200 108.800 C 307.600 108.800,309.200 108.960,309.200 109.200 C 309.200 109.422,310.259 109.600,311.576 109.600 C 312.883 109.600,314.064 109.780,314.200 110.000 C 314.336 110.220,315.236 110.400,316.200 110.400 C 317.164 110.400,318.064 110.580,318.200 110.800 C 318.336 111.020,319.157 111.200,320.024 111.200 C 320.891 111.200,321.600 111.380,321.600 111.600 C 321.600 111.820,321.960 112.000,322.400 112.000 C 322.840 112.000,323.200 112.240,323.200 112.532 C 323.200 112.825,323.650 113.306,324.200 113.600 C 324.750 113.894,325.200 114.285,325.200 114.468 C 325.200 114.650,325.483 114.800,325.829 114.800 C 326.627 114.800,327.600 115.760,327.600 116.548 C 327.600 116.881,327.789 117.269,328.019 117.412 C 328.288 117.578,328.302 117.838,328.059 118.136 C 327.395 118.946,327.546 127.200,328.225 127.200 C 328.981 127.200,328.964 127.851,328.200 128.145 C 327.777 128.307,327.600 128.968,327.600 130.387 C 327.600 131.910,327.746 132.400,328.200 132.400 C 328.530 132.400,328.800 132.670,328.800 133.000 C 328.800 133.330,328.530 133.600,328.200 133.600 C 327.766 133.600,327.600 134.046,327.600 135.213 C 327.600 136.277,327.804 136.903,328.200 137.055 C 328.530 137.182,328.800 137.446,328.800 137.643 C 328.800 137.839,328.530 138.000,328.200 138.000 C 327.739 138.000,327.600 138.511,327.600 140.200 C 327.600 141.889,327.739 142.400,328.200 142.400 C 328.530 142.400,328.800 142.580,328.800 142.800 C 328.800 143.020,328.546 143.200,328.236 143.200 C 327.785 143.200,327.670 144.084,327.664 147.600 C 327.658 151.152,327.766 152.000,328.228 152.000 C 328.543 152.000,328.800 152.270,328.800 152.600 C 328.800 152.930,328.530 153.200,328.200 153.200 C 327.748 153.200,327.600 153.684,327.600 155.157 C 327.600 156.528,327.780 157.183,328.200 157.345 C 328.963 157.638,328.984 158.400,328.228 158.400 C 327.766 158.400,327.658 159.248,327.664 162.800 C 327.670 166.316,327.785 167.200,328.236 167.200 C 328.984 167.200,328.959 167.853,328.200 168.145 C 327.777 168.307,327.600 168.968,327.600 170.387 C 327.600 171.910,327.746 172.400,328.200 172.400 C 328.530 172.400,328.800 172.670,328.800 173.000 C 328.800 173.330,328.530 173.600,328.200 173.600 C 327.767 173.600,327.600 174.044,327.600 175.200 C 327.600 176.356,327.767 176.800,328.200 176.800 C 328.530 176.800,328.800 177.070,328.800 177.400 C 328.800 177.730,328.530 178.000,328.200 178.000 C 327.746 178.000,327.600 178.490,327.600 180.013 C 327.600 181.432,327.777 182.093,328.200 182.255 C 328.964 182.549,328.981 183.200,328.225 183.200 C 327.546 183.200,327.395 191.454,328.059 192.264 C 328.302 192.562,328.288 192.822,328.019 192.988 C 327.325 193.417,327.487 197.200,328.200 197.200 C 328.619 197.200,328.800 197.622,328.800 198.600 L 328.800 200.000 338.920 200.000 C 346.258 200.000,349.172 199.868,349.520 199.520 C 349.888 199.152,350.000 188.231,350.000 152.800 C 350.000 105.281,349.973 104.412,348.500 104.403 C 348.225 104.401,348.000 104.159,348.000 103.864 C 348.000 103.259,345.441 100.800,344.811 100.800 C 344.585 100.800,344.400 100.615,344.400 100.389 C 344.400 99.638,341.883 97.200,341.107 97.200 C 340.227 97.200,339.201 96.302,339.197 95.529 C 339.195 94.979,337.092 93.600,336.256 93.600 C 335.992 93.600,335.517 93.240,335.200 92.800 C 334.883 92.360,334.322 92.000,333.954 92.000 C 333.587 92.000,333.182 91.730,333.055 91.400 C 332.929 91.070,332.459 90.800,332.013 90.800 C 331.566 90.800,331.200 90.620,331.200 90.400 C 331.200 90.180,330.570 90.000,329.800 90.000 C 329.030 90.000,328.400 89.820,328.400 89.600 C 328.400 89.374,327.267 89.200,325.800 89.200 C 324.333 89.200,323.200 89.026,323.200 88.800 C 323.200 88.580,322.679 88.400,322.043 88.400 C 321.383 88.400,320.787 88.142,320.655 87.800 C 320.489 87.367,319.810 87.200,318.213 87.200 C 316.996 87.200,316.000 87.024,316.000 86.808 C 316.000 86.556,309.730 86.449,298.500 86.508 C 272.071 86.647,260.493 86.458,260.259 85.882 C 260.112 85.520,260.055 85.525,260.032 85.903 C 260.007 86.293,257.921 86.402,250.788 86.384 C 245.722 86.372,241.671 86.209,241.786 86.023 C 241.901 85.837,241.546 85.711,240.998 85.742 C 240.449 85.774,240.000 85.935,240.000 86.100 C 240.000 86.607,235.794 86.431,235.221 85.900 C 234.790 85.500,234.739 85.500,234.965 85.900 M299.377 92.489 C 300.810 94.534,299.389 97.098,297.078 96.636 C 294.954 96.211,294.195 94.096,295.621 92.578 C 296.796 91.327,298.535 91.286,299.377 92.489 M233.367 94.643 C 234.288 94.996,234.170 96.692,233.204 96.999 C 232.140 97.336,231.600 96.947,231.600 95.843 C 231.600 94.477,232.082 94.149,233.367 94.643 M256.588 95.987 C 258.751 98.377,255.473 101.873,253.200 99.600 C 252.241 98.641,252.173 97.302,253.023 96.089 C 253.808 94.968,255.619 94.916,256.588 95.987 M233.122 101.652 C 233.251 102.766,232.468 103.354,231.400 102.945 C 230.675 102.666,230.599 100.949,231.300 100.660 C 232.300 100.247,233.003 100.630,233.122 101.652 M282.869 101.862 C 283.780 102.687,283.817 104.698,282.938 105.669 C 281.489 107.270,278.800 106.056,278.800 103.800 C 278.800 101.579,281.261 100.407,282.869 101.862 M338.869 105.462 C 340.523 106.959,339.295 110.000,337.037 110.000 C 335.944 110.000,334.400 108.445,334.400 107.346 C 334.400 105.301,337.327 104.067,338.869 105.462 M337.346 125.229 C 340.027 127.338,336.967 131.073,334.210 129.057 C 333.132 128.269,333.226 126.070,334.378 125.138 C 335.543 124.194,336.050 124.209,337.346 125.229 M345.043 141.100 C 346.375 142.855,345.199 145.200,342.987 145.200 C 341.454 145.200,340.667 144.385,340.667 142.800 C 340.667 140.552,343.725 139.364,345.043 141.100 M338.069 155.862 C 339.615 157.261,338.556 160.400,336.538 160.400 C 334.294 160.400,333.097 157.078,334.889 155.823 C 336.037 155.019,337.152 155.032,338.069 155.862 M346.349 185.228 C 347.711 187.667,345.081 190.159,342.875 188.520 C 341.490 187.490,341.288 185.912,342.399 184.801 C 343.573 183.627,345.576 183.844,346.349 185.228 M337.043 186.207 C 338.183 187.347,338.074 188.530,336.721 189.700 C 335.064 191.133,332.800 190.036,332.800 187.800 C 332.800 185.343,335.257 184.421,337.043 186.207 " stroke="none" fill="#0dc43d" fill-rule="evenodd"></path></g></svg>