<svg id="svg" version="1.1" xmlns="http://www.w3.org/2000/svg" xmlns:xlink="http://www.w3.org/1999/xlink" width="400" height="400" viewBox="0, 0, 400,400"><g id="svgg"><path id="path0" d="M345.600 214.000 C 345.600 214.241,343.933 214.400,341.400 214.400 C 338.867 214.400,337.200 214.559,337.200 214.800 C 337.200 215.020,336.840 215.200,336.400 215.200 C 334.748 215.200,334.000 216.572,334.000 219.600 C 334.000 221.200,333.829 222.400,333.600 222.400 C 333.371 222.400,333.200 223.608,333.200 225.224 C 333.200 226.777,333.042 227.950,332.850 227.831 C 331.988 227.298,331.810 274.192,332.670 275.259 C 333.190 275.905,333.434 309.711,332.924 310.499 C 332.746 310.775,332.376 312.890,332.103 315.200 C 331.830 317.510,331.493 320.348,331.353 321.507 C 331.214 322.666,330.942 323.712,330.750 323.831 C 330.557 323.950,330.400 324.566,330.400 325.200 C 330.400 325.834,330.220 326.464,330.000 326.600 C 329.780 326.736,329.600 327.266,329.600 327.778 C 329.600 329.122,328.903 330.323,326.600 332.945 C 326.380 333.195,325.965 333.850,325.678 334.400 C 324.308 337.022,324.746 336.904,316.418 336.898 C 312.228 336.895,308.800 337.051,308.800 337.246 C 308.800 337.441,308.485 337.597,308.100 337.594 C 307.502 337.589,307.487 337.531,308.000 337.200 C 308.450 336.909,308.250 336.812,307.200 336.812 C 306.150 336.812,305.950 336.909,306.400 337.200 C 306.913 337.531,306.898 337.589,306.300 337.594 C 305.915 337.597,305.600 337.456,305.600 337.280 C 305.600 337.104,304.970 336.960,304.200 336.960 C 303.430 336.960,302.800 337.104,302.800 337.280 C 302.800 337.456,302.485 337.597,302.100 337.594 C 301.502 337.589,301.487 337.531,302.000 337.200 C 302.450 336.909,302.250 336.812,301.200 336.812 C 300.150 336.812,299.950 336.909,300.400 337.200 C 300.913 337.531,300.898 337.589,300.300 337.594 C 299.915 337.597,299.600 337.437,299.600 337.238 C 299.600 337.038,297.710 336.890,295.400 336.908 C 293.090 336.925,291.200 337.088,291.200 337.270 C 291.200 337.451,290.885 337.597,290.500 337.594 C 289.902 337.589,289.887 337.531,290.400 337.200 C 290.850 336.909,290.650 336.812,289.600 336.812 C 288.550 336.812,288.350 336.909,288.800 337.200 C 289.313 337.531,289.298 337.589,288.700 337.594 C 288.315 337.597,288.000 337.446,288.000 337.257 C 288.000 336.783,285.468 336.908,285.106 337.400 C 284.923 337.650,284.810 337.617,284.806 337.312 C 284.802 336.949,283.373 336.843,279.200 336.895 C 276.120 336.933,273.600 337.107,273.600 337.282 C 273.600 337.457,273.285 337.597,272.900 337.594 C 272.302 337.589,272.287 337.531,272.800 337.200 C 273.250 336.909,273.050 336.812,272.000 336.812 C 270.950 336.812,270.750 336.909,271.200 337.200 C 271.713 337.531,271.698 337.589,271.100 337.594 C 270.715 337.597,270.400 337.445,270.400 337.255 C 270.400 337.065,267.070 336.909,263.000 336.909 C 258.930 336.909,255.600 337.065,255.600 337.255 C 255.600 337.445,255.285 337.597,254.900 337.594 C 254.302 337.589,254.287 337.531,254.800 337.200 C 255.250 336.909,255.050 336.812,254.000 336.812 C 252.950 336.812,252.750 336.909,253.200 337.200 C 253.713 337.531,253.698 337.589,253.100 337.594 C 252.715 337.597,252.400 337.450,252.400 337.267 C 252.400 337.084,250.600 336.924,248.400 336.912 C 246.200 336.900,244.400 337.050,244.400 337.245 C 244.400 337.440,243.995 337.597,243.500 337.594 C 242.772 337.589,242.715 337.514,243.200 337.200 C 243.648 336.911,243.445 336.818,242.400 336.834 C 241.256 336.852,241.146 336.919,241.800 337.200 C 242.563 337.528,242.559 337.545,241.700 337.572 C 241.205 337.587,240.800 337.446,240.800 337.257 C 240.800 336.783,238.268 336.908,237.906 337.400 C 237.724 337.648,237.610 337.610,237.606 337.300 C 237.602 337.003,237.073 336.802,236.300 336.806 C 235.314 336.811,235.145 336.906,235.600 337.200 C 236.113 337.531,236.098 337.589,235.500 337.594 C 235.115 337.597,234.800 337.465,234.800 337.300 C 234.800 336.801,229.529 336.740,227.537 337.217 L 225.674 337.662 225.771 346.231 C 225.854 353.474,225.780 354.800,225.292 354.800 C 224.810 354.800,224.763 355.406,225.006 358.477 C 225.332 362.589,225.778 363.417,227.345 362.821 C 228.059 362.550,228.393 362.578,228.508 362.920 C 228.630 363.285,228.912 363.271,229.679 362.862 C 230.525 362.411,230.837 362.411,231.597 362.862 C 232.286 363.270,232.547 363.284,232.679 362.920 C 232.803 362.579,233.142 362.550,233.853 362.820 C 235.067 363.282,236.119 363.315,235.852 362.884 C 235.744 362.710,236.296 362.550,237.078 362.529 C 238.027 362.504,238.317 362.607,237.949 362.840 C 237.128 363.360,238.241 363.313,239.226 362.786 C 239.760 362.500,240.000 362.500,240.000 362.786 C 240.000 363.014,240.270 363.200,240.600 363.200 C 240.930 363.200,241.200 363.020,241.200 362.800 C 241.200 362.258,242.685 362.290,243.025 362.840 C 243.291 363.271,244.637 363.151,246.166 362.560 C 246.746 362.336,246.851 362.394,246.600 362.800 C 246.348 363.209,246.451 363.261,247.034 363.021 C 248.206 362.539,249.631 362.426,249.378 362.835 C 249.254 363.036,249.433 363.200,249.776 363.200 C 250.119 363.200,250.400 363.024,250.400 362.810 C 250.400 362.556,250.759 362.556,251.426 362.810 C 252.717 363.301,252.908 363.299,252.600 362.800 C 252.453 362.562,252.929 362.400,253.776 362.400 C 254.559 362.400,255.200 362.535,255.200 362.700 C 255.200 362.865,255.993 363.000,256.962 363.000 C 257.931 363.000,258.516 362.868,258.262 362.706 C 258.008 362.544,258.756 362.409,259.924 362.406 C 261.092 362.403,261.958 362.544,261.850 362.719 C 261.589 363.142,264.789 363.055,265.761 362.613 C 266.208 362.410,267.366 362.442,268.561 362.689 C 269.723 362.930,270.657 362.958,270.733 362.756 C 270.917 362.264,273.200 362.305,273.200 362.800 C 273.200 363.020,273.391 363.200,273.624 363.200 C 273.857 363.200,273.964 363.065,273.862 362.900 C 273.760 362.735,274.109 362.600,274.638 362.600 C 275.167 362.600,275.600 362.735,275.600 362.900 C 275.600 363.065,275.881 363.200,276.224 363.200 C 276.567 363.200,276.759 363.057,276.651 362.883 C 276.544 362.709,276.799 362.540,277.220 362.508 C 277.640 362.477,278.088 362.619,278.216 362.825 C 278.343 363.031,278.717 363.200,279.047 363.200 C 279.384 363.200,279.527 363.006,279.374 362.757 C 279.191 362.462,279.384 362.396,279.950 362.557 C 280.417 362.691,281.169 362.905,281.619 363.033 C 282.070 363.161,282.706 363.044,283.033 362.773 C 283.507 362.380,283.841 362.393,284.679 362.840 C 285.502 363.278,285.767 363.291,285.899 362.900 C 286.111 362.269,288.955 362.240,289.947 362.860 C 290.484 363.195,291.016 363.203,291.918 362.889 C 292.838 362.568,293.193 362.578,293.311 362.929 C 293.429 363.279,293.733 363.260,294.496 362.853 C 295.118 362.522,295.736 362.441,296.062 362.650 C 296.737 363.081,300.000 363.132,300.000 362.711 C 300.000 362.540,300.641 362.400,301.424 362.400 C 302.271 362.400,302.747 362.562,302.600 362.800 C 302.464 363.020,302.633 363.200,302.976 363.200 C 303.319 363.200,303.600 363.024,303.600 362.810 C 303.600 362.556,303.959 362.556,304.626 362.810 C 305.929 363.305,306.375 363.301,305.600 362.800 C 305.161 362.516,305.455 362.411,306.700 362.406 C 307.635 362.403,308.400 362.540,308.400 362.711 C 308.400 363.132,311.663 363.081,312.338 362.650 C 312.664 362.441,313.282 362.522,313.904 362.853 C 314.682 363.267,314.970 363.283,315.092 362.920 C 315.207 362.578,315.541 362.550,316.253 362.820 C 317.516 363.300,317.707 363.297,317.400 362.800 C 317.249 362.555,317.870 362.400,319.000 362.400 C 320.016 362.400,320.762 362.538,320.657 362.708 C 320.552 362.877,321.172 363.034,322.033 363.056 C 322.895 363.079,323.600 362.941,323.600 362.749 C 323.600 362.241,324.685 362.322,325.618 362.900 C 326.159 363.235,326.519 363.264,326.712 362.988 C 326.870 362.762,328.235 362.520,329.744 362.450 C 332.274 362.333,333.775 361.936,336.400 360.689 C 337.475 360.179,344.400 353.615,344.400 353.107 C 344.400 352.938,344.715 352.476,345.100 352.080 C 345.485 351.684,346.250 350.755,346.800 350.016 C 347.350 349.278,347.980 348.477,348.201 348.237 C 348.596 347.806,350.364 345.259,351.671 343.238 C 352.040 342.667,352.355 341.900,352.371 341.533 C 352.387 341.167,352.577 340.807,352.794 340.733 C 353.011 340.660,353.340 339.790,353.526 338.800 C 353.711 337.810,354.148 336.370,354.496 335.600 C 354.845 334.830,355.356 332.940,355.633 331.400 C 355.910 329.860,356.286 328.429,356.468 328.220 C 356.651 328.011,356.806 326.841,356.813 325.620 C 356.820 324.306,357.065 323.083,357.413 322.624 C 357.774 322.145,358.000 320.944,358.000 319.497 C 358.000 318.205,358.182 316.808,358.404 316.393 C 358.646 315.939,358.811 311.385,358.814 305.002 C 358.818 298.201,358.961 294.452,359.210 294.606 C 359.425 294.739,359.600 294.657,359.600 294.424 C 359.600 294.191,359.420 294.000,359.200 294.000 C 358.980 294.000,358.800 293.190,358.800 292.200 C 358.800 291.210,358.980 290.400,359.200 290.400 C 359.420 290.400,359.600 290.209,359.600 289.976 C 359.600 289.743,359.420 289.664,359.200 289.800 C 358.950 289.954,358.800 289.137,358.800 287.624 C 358.800 286.275,358.977 285.200,359.200 285.200 C 359.420 285.200,359.600 285.009,359.600 284.776 C 359.600 284.543,359.420 284.464,359.200 284.600 C 358.972 284.741,358.800 284.396,358.800 283.800 C 358.800 283.204,358.972 282.859,359.200 283.000 C 359.420 283.136,359.600 283.057,359.600 282.824 C 359.600 282.591,359.422 282.400,359.205 282.400 C 358.950 282.400,358.756 271.744,358.657 252.300 C 358.466 214.576,358.448 214.400,354.975 214.400 C 354.025 214.400,353.136 214.220,353.000 214.000 C 352.864 213.780,352.313 213.600,351.776 213.600 C 351.239 213.600,350.800 213.780,350.800 214.000 C 350.800 214.220,349.990 214.400,349.000 214.400 C 348.010 214.400,347.200 214.220,347.200 214.000 C 347.200 213.780,346.840 213.600,346.400 213.600 C 345.960 213.600,345.600 213.780,345.600 214.000 M342.497 222.653 C 343.090 223.954,342.339 225.500,340.945 225.850 C 339.597 226.188,337.935 224.536,338.283 223.204 C 338.801 221.222,341.674 220.847,342.497 222.653 M348.974 222.531 C 350.392 223.569,349.305 226.800,347.538 226.800 C 346.930 226.800,345.200 224.889,345.200 224.218 C 345.200 222.562,347.568 221.503,348.974 222.531 " stroke="none" fill="#eb0404" fill-rule="evenodd"></path><path id="path1" d="M340.800 213.800 C 340.800 214.267,341.333 214.400,343.200 214.400 C 344.533 214.400,345.600 214.222,345.600 214.000 C 345.600 213.780,345.960 213.600,346.400 213.600 C 346.840 213.600,347.200 213.780,347.200 214.000 C 347.200 214.671,350.682 214.485,350.945 213.800 C 351.142 213.286,350.434 213.200,345.987 213.200 C 341.643 213.200,340.800 213.298,340.800 213.800 M352.898 213.700 C 353.089 214.281,356.800 214.632,356.800 214.069 C 356.800 213.618,355.425 213.213,353.867 213.205 C 353.137 213.202,352.792 213.378,352.898 213.700 M339.258 221.845 C 338.063 222.681,337.953 223.900,338.965 225.077 C 340.067 226.359,341.780 226.121,342.478 224.589 C 343.421 222.520,341.108 220.549,339.258 221.845 M342.000 222.800 C 342.643 224.002,341.851 225.200,340.413 225.200 C 339.139 225.200,338.554 224.206,339.000 222.800 C 339.177 222.242,339.605 222.000,340.413 222.000 C 341.162 222.000,341.723 222.283,342.000 222.800 M346.000 222.800 C 344.944 223.856,344.991 224.627,346.182 225.818 C 347.705 227.342,349.700 226.428,349.700 224.207 C 349.700 222.160,347.483 221.317,346.000 222.800 M349.000 224.400 C 349.000 226.194,346.317 226.625,346.068 224.871 C 345.842 223.272,346.278 222.738,347.697 222.874 C 348.896 222.990,349.000 223.112,349.000 224.400 M42.100 228.682 L 41.200 228.856 41.200 273.001 L 41.200 317.147 42.244 316.958 C 42.819 316.853,43.534 316.523,43.834 316.223 C 49.283 310.774,57.127 315.275,56.698 323.605 C 56.509 327.282,55.853 328.403,53.088 329.781 C 48.992 331.822,45.268 330.762,44.021 327.200 C 43.180 324.795,42.892 324.400,41.976 324.400 C 41.245 324.400,41.200 324.723,41.200 330.000 C 41.200 333.467,41.352 335.600,41.600 335.600 C 41.820 335.600,42.000 336.326,42.000 337.213 C 42.000 338.277,42.204 338.903,42.600 339.055 C 42.930 339.182,43.200 339.688,43.200 340.181 C 43.200 340.673,43.560 341.402,44.000 341.800 C 44.440 342.198,44.800 342.766,44.800 343.062 C 44.800 343.358,45.160 343.600,45.600 343.600 C 46.040 343.600,46.400 343.780,46.400 344.000 C 46.400 344.220,46.670 344.400,47.000 344.400 C 47.330 344.400,47.600 344.598,47.600 344.839 C 47.600 345.399,52.401 350.000,52.985 350.000 C 53.226 350.000,53.683 350.360,54.000 350.800 C 54.317 351.240,54.741 351.600,54.941 351.600 C 55.142 351.600,55.597 351.928,55.953 352.328 C 56.309 352.729,57.185 353.398,57.900 353.815 C 58.615 354.231,59.200 354.714,59.200 354.886 C 59.200 355.059,59.520 355.200,59.912 355.200 C 60.303 355.200,60.883 355.560,61.200 356.000 C 61.568 356.511,62.235 356.800,63.046 356.800 C 63.804 356.800,64.407 357.041,64.545 357.400 C 64.671 357.730,65.143 358.000,65.594 358.000 C 66.730 358.000,69.600 358.929,69.600 359.297 C 69.600 359.464,70.579 359.600,71.776 359.600 C 72.973 359.600,74.064 359.780,74.200 360.000 C 75.131 361.507,76.730 360.070,77.360 357.162 C 79.624 346.694,107.037 349.625,108.071 360.445 L 108.200 361.800 116.600 362.044 C 121.220 362.178,126.980 362.316,129.400 362.350 C 132.406 362.393,133.610 362.535,133.200 362.800 C 132.839 363.033,132.790 363.190,133.076 363.194 C 133.338 363.197,133.662 363.023,133.796 362.806 C 134.181 362.184,167.886 362.288,168.139 362.912 C 168.292 363.288,168.344 363.286,168.368 362.900 C 168.409 362.250,171.274 362.234,171.920 362.880 C 172.293 363.253,172.400 363.253,172.400 362.880 C 172.400 362.298,177.094 362.219,177.989 362.785 C 178.377 363.030,178.695 362.994,178.920 362.679 C 179.183 362.310,179.307 362.315,179.464 362.700 C 179.575 362.975,179.967 363.197,180.333 363.194 C 180.910 363.189,180.919 363.135,180.400 362.800 C 179.970 362.522,180.397 362.411,181.900 362.406 C 183.055 362.403,184.000 362.220,184.000 362.000 C 184.000 361.770,185.237 361.600,186.911 361.600 C 191.293 361.600,191.200 361.817,191.200 351.595 C 191.200 346.265,191.054 343.200,190.800 343.200 C 190.580 343.200,190.397 342.525,190.394 341.700 C 190.386 339.946,188.599 337.600,187.271 337.600 C 186.818 337.600,186.336 337.420,186.200 337.200 C 186.064 336.980,185.108 336.799,184.076 336.798 C 183.044 336.796,181.703 336.536,181.096 336.219 C 180.204 335.754,177.783 335.651,168.496 335.683 C 162.173 335.706,157.495 335.798,158.100 335.888 C 159.119 336.041,159.701 336.800,158.800 336.800 C 158.580 336.800,158.400 336.990,158.400 337.222 C 158.400 339.172,152.908 345.106,149.663 346.662 C 141.803 350.431,125.647 343.605,129.185 338.010 C 129.777 337.074,128.152 335.862,126.072 335.688 C 124.941 335.593,124.174 335.719,123.981 336.031 C 123.551 336.727,95.401 336.768,94.126 336.075 C 93.646 335.814,91.891 335.600,90.226 335.600 C 88.475 335.600,87.200 335.431,87.200 335.200 C 87.200 334.974,86.067 334.800,84.600 334.800 C 83.133 334.800,82.000 334.626,82.000 334.400 C 82.000 334.180,81.190 334.000,80.200 334.000 C 79.210 334.000,78.400 333.820,78.400 333.600 C 78.400 333.380,77.590 333.200,76.600 333.200 C 75.267 333.200,74.800 333.044,74.800 332.600 C 74.800 332.270,74.480 332.000,74.088 332.000 C 73.697 332.000,73.117 331.640,72.800 331.200 C 72.483 330.760,72.033 330.400,71.800 330.400 C 71.567 330.400,71.117 330.040,70.800 329.600 C 70.483 329.160,69.942 328.800,69.598 328.800 C 69.254 328.800,68.632 328.215,68.216 327.500 C 67.801 326.785,67.267 326.062,67.030 325.893 C 66.746 325.690,66.837 325.446,67.300 325.173 C 68.210 324.637,68.281 321.138,67.400 320.257 C 66.637 319.494,66.637 318.948,67.400 318.655 C 68.280 318.318,68.222 314.964,67.328 314.464 C 66.698 314.111,66.698 314.045,67.328 313.415 C 68.217 312.526,68.271 308.879,67.400 308.545 C 66.626 308.248,66.626 307.352,67.400 307.055 C 68.236 306.735,68.236 303.265,67.400 302.945 C 67.070 302.818,66.800 302.541,66.800 302.329 C 66.800 302.116,67.070 301.673,67.400 301.343 C 68.234 300.509,68.234 296.800,67.400 296.800 C 67.070 296.800,66.800 296.607,66.800 296.371 C 66.800 296.136,67.070 295.673,67.400 295.343 C 67.730 295.013,68.000 294.058,68.000 293.220 C 68.000 292.355,67.741 291.483,67.400 291.200 C 67.070 290.926,66.800 290.473,66.800 290.194 C 66.800 289.914,67.070 289.582,67.400 289.455 C 67.823 289.293,68.000 288.632,68.000 287.213 C 68.000 285.690,67.854 285.200,67.400 285.200 C 67.067 285.200,66.800 284.844,66.800 284.400 C 66.800 283.702,66.533 283.600,64.698 283.600 C 55.850 283.600,49.143 266.277,54.012 256.000 C 60.745 241.790,61.346 240.988,65.642 240.463 C 67.888 240.189,68.996 238.757,67.428 238.155 C 66.629 237.849,66.610 236.558,67.400 236.255 C 67.812 236.097,68.000 235.453,68.000 234.200 C 68.000 232.947,67.812 232.303,67.400 232.145 C 67.030 232.003,66.800 231.395,66.800 230.557 C 66.800 229.215,66.780 229.200,65.000 229.200 C 64.010 229.200,63.200 229.033,63.200 228.828 C 63.200 228.598,62.703 228.598,61.903 228.828 C 60.167 229.326,58.131 229.298,57.131 228.763 C 56.540 228.447,56.193 228.447,55.877 228.763 C 55.329 229.311,52.133 229.340,51.800 228.800 C 51.560 228.412,43.982 228.320,42.100 228.682 M151.905 335.883 C 152.402 335.979,153.122 335.975,153.505 335.875 C 153.887 335.775,153.480 335.696,152.600 335.701 C 151.720 335.705,151.407 335.787,151.905 335.883 M243.200 337.200 C 242.715 337.514,242.772 337.589,243.500 337.594 C 243.995 337.597,244.400 337.420,244.400 337.200 C 244.400 336.699,243.976 336.699,243.200 337.200 M182.312 344.056 C 182.695 345.980,179.573 346.605,178.976 344.724 C 178.552 343.390,180.189 342.162,181.357 342.937 C 181.821 343.244,182.250 343.748,182.312 344.056 M181.196 350.195 C 181.484 350.542,181.582 351.218,181.431 351.819 C 181.075 353.239,178.674 353.125,178.469 351.678 C 178.220 349.917,180.111 348.888,181.196 350.195 M224.794 360.496 C 224.648 362.226,224.737 362.845,225.157 363.006 C 225.873 363.279,226.323 362.847,225.714 362.471 C 225.460 362.313,225.192 361.288,225.119 360.192 L 224.987 358.200 224.794 360.496 M235.818 362.830 C 235.991 363.110,237.946 362.988,238.255 362.678 C 238.357 362.576,237.814 362.510,237.048 362.530 C 236.283 362.551,235.729 362.685,235.818 362.830 M241.200 362.800 C 241.200 363.020,241.661 363.200,242.224 363.200 C 242.804 363.200,243.140 363.027,243.000 362.800 C 242.864 362.580,242.403 362.400,241.976 362.400 C 241.549 362.400,241.200 362.580,241.200 362.800 M247.578 362.813 C 247.180 363.060,247.339 363.131,248.105 363.049 C 249.408 362.910,249.858 362.590,248.857 362.514 C 248.467 362.485,247.892 362.620,247.578 362.813 M252.600 362.800 C 252.736 363.020,253.377 363.200,254.024 363.200 C 254.671 363.200,255.200 363.020,255.200 362.800 C 255.200 362.580,254.559 362.400,253.776 362.400 C 252.929 362.400,252.453 362.562,252.600 362.800 M258.118 362.652 C 258.551 363.084,261.556 363.195,261.808 362.787 C 261.951 362.556,261.203 362.400,259.957 362.400 C 258.807 362.400,257.980 362.513,258.118 362.652 M265.045 362.874 C 265.304 363.292,266.769 363.246,267.800 362.788 C 268.395 362.523,268.119 362.446,266.722 362.489 C 265.689 362.521,264.935 362.694,265.045 362.874 M270.800 362.800 C 270.800 363.020,271.340 363.200,272.000 363.200 C 272.660 363.200,273.200 363.020,273.200 362.800 C 273.200 362.580,272.660 362.400,272.000 362.400 C 271.340 362.400,270.800 362.580,270.800 362.800 M287.731 362.884 C 288.951 363.145,289.802 363.158,290.042 362.918 C 290.282 362.678,289.571 362.525,288.111 362.504 L 285.800 362.470 287.731 362.884 M300.000 362.800 C 300.000 363.020,300.529 363.200,301.176 363.200 C 301.823 363.200,302.464 363.020,302.600 362.800 C 302.747 362.562,302.271 362.400,301.424 362.400 C 300.641 362.400,300.000 362.580,300.000 362.800 M305.600 362.800 C 306.390 363.310,308.400 363.310,308.400 362.800 C 308.400 362.580,307.635 362.403,306.700 362.406 C 305.455 362.411,305.161 362.516,305.600 362.800 M312.226 362.758 C 312.105 362.954,312.437 363.089,312.964 363.058 C 313.492 363.026,313.840 362.865,313.738 362.700 C 313.482 362.285,312.495 362.323,312.226 362.758 M317.400 362.800 C 317.536 363.020,318.256 363.200,319.000 363.200 C 319.744 363.200,320.464 363.020,320.600 362.800 C 320.751 362.555,320.130 362.400,319.000 362.400 C 317.870 362.400,317.249 362.555,317.400 362.800 M323.600 362.700 C 323.600 362.865,324.033 363.000,324.562 363.000 C 325.091 363.000,325.440 362.865,325.338 362.700 C 325.236 362.535,324.803 362.400,324.376 362.400 C 323.949 362.400,323.600 362.535,323.600 362.700 " stroke="none" fill="#9d267d" fill-rule="evenodd"></path><path id="path2" d="M90.120 38.114 C 89.517 39.082,81.607 43.643,75.200 46.715 C 69.184 49.601,61.736 51.681,55.254 52.286 C 52.593 52.535,48.400 55.642,48.400 57.365 C 48.400 57.714,48.220 58.000,48.000 58.000 C 47.780 58.000,47.600 58.428,47.600 58.951 C 47.600 59.474,47.330 60.126,47.000 60.400 C 46.670 60.674,46.400 61.506,46.400 62.249 C 46.400 62.992,46.220 63.600,46.000 63.600 C 45.780 63.600,45.600 64.140,45.600 64.800 C 45.600 65.460,45.420 66.000,45.200 66.000 C 44.980 66.000,44.800 66.799,44.800 67.776 C 44.800 68.753,44.620 69.664,44.400 69.800 C 44.180 69.936,44.000 70.577,44.000 71.224 C 44.000 71.871,43.820 72.400,43.600 72.400 C 43.375 72.400,43.200 73.519,43.200 74.957 C 43.200 76.925,43.053 77.571,42.565 77.758 C 41.473 78.177,41.906 86.306,43.088 87.573 C 48.277 93.136,51.326 109.306,48.638 117.000 C 47.527 120.177,44.073 127.127,43.142 128.058 C 42.477 128.723,42.282 129.434,42.246 131.321 C 42.217 132.860,42.019 133.794,41.700 133.900 C 41.109 134.097,41.018 136.000,41.600 136.000 C 41.820 136.000,42.000 136.450,42.000 137.000 C 42.000 137.550,41.820 138.000,41.600 138.000 C 41.001 138.000,41.096 142.295,41.700 142.517 C 42.100 142.663,42.100 142.806,41.700 143.230 C 41.054 143.915,41.054 147.363,41.700 148.458 C 42.100 149.135,42.100 149.341,41.700 149.486 C 41.096 149.704,41.001 154.000,41.600 154.000 C 41.820 154.000,42.000 154.360,42.000 154.800 C 42.000 155.240,41.820 155.600,41.600 155.600 C 41.380 155.600,41.200 156.590,41.200 157.800 C 41.200 159.010,41.380 160.000,41.600 160.000 C 41.820 160.000,42.000 160.450,42.000 161.000 C 42.000 161.550,41.820 162.000,41.600 162.000 C 41.057 162.000,41.089 165.729,41.637 166.277 C 41.953 166.593,41.953 166.940,41.637 167.531 C 41.090 168.554,41.062 171.600,41.600 171.600 C 41.820 171.600,42.000 172.050,42.000 172.600 C 42.000 173.150,41.820 173.600,41.600 173.600 C 41.078 173.600,41.078 177.477,41.600 177.800 C 41.820 177.936,42.000 179.567,42.000 181.424 C 42.000 184.158,42.114 184.800,42.600 184.800 C 42.973 184.800,43.200 185.178,43.200 185.800 L 43.200 186.800 51.767 186.800 C 58.246 186.800,60.382 186.922,60.535 187.300 C 60.696 187.700,60.743 187.700,60.768 187.300 C 60.788 186.993,61.388 186.800,62.320 186.800 C 64.086 186.800,65.992 186.022,65.997 185.300 C 65.999 185.025,66.180 184.800,66.400 184.800 C 66.623 184.800,66.800 183.724,66.800 182.371 C 66.800 180.746,66.998 179.744,67.400 179.343 C 67.843 178.900,68.000 177.815,68.000 175.195 C 68.000 173.244,68.180 171.536,68.400 171.400 C 68.906 171.088,68.930 167.200,68.427 167.200 C 68.221 167.200,67.996 166.723,67.927 166.139 C 67.821 165.259,67.486 164.988,65.948 164.541 C 58.661 162.426,57.477 159.315,57.674 142.800 C 57.841 128.737,58.715 126.073,64.484 122.052 C 66.214 120.846,66.623 120.336,66.728 119.256 C 66.820 118.305,67.015 117.997,67.428 118.155 C 67.881 118.329,68.000 117.920,68.000 116.187 C 68.000 114.510,67.860 114.000,67.400 114.000 C 67.070 114.000,66.800 113.839,66.800 113.643 C 66.800 113.446,67.070 113.182,67.400 113.055 C 67.823 112.893,68.000 112.232,68.000 110.813 C 68.000 109.290,67.854 108.800,67.400 108.800 C 67.027 108.800,66.800 108.422,66.800 107.800 C 66.800 107.178,67.027 106.800,67.400 106.800 C 67.861 106.800,68.000 106.289,68.000 104.600 C 68.000 102.911,67.861 102.400,67.400 102.400 C 67.070 102.400,66.800 102.239,66.800 102.043 C 66.800 101.846,67.070 101.582,67.400 101.455 C 67.834 101.289,68.000 100.609,68.000 99.000 C 68.000 97.391,67.834 96.711,67.400 96.545 C 66.634 96.251,66.615 95.200,67.376 95.200 C 67.830 95.200,67.996 94.252,68.161 90.700 C 68.486 83.724,68.832 80.400,69.233 80.400 C 69.435 80.400,69.600 79.410,69.600 78.200 C 69.600 76.990,69.780 76.000,70.000 76.000 C 70.220 76.000,70.400 75.730,70.400 75.400 C 70.400 75.070,70.580 74.800,70.800 74.800 C 71.020 74.800,71.200 73.990,71.200 73.000 C 71.200 71.667,71.356 71.200,71.800 71.200 C 72.130 71.200,72.400 70.880,72.400 70.488 C 72.400 70.097,72.760 69.517,73.200 69.200 C 73.640 68.883,74.000 68.279,74.000 67.859 C 74.000 67.438,74.405 66.745,74.900 66.319 C 75.395 65.892,76.293 65.106,76.897 64.572 C 78.000 63.594,79.600 63.256,79.600 64.000 C 79.600 64.220,80.500 64.400,81.600 64.400 C 82.700 64.400,83.600 64.220,83.600 64.000 C 83.600 63.780,84.050 63.600,84.600 63.600 C 85.150 63.600,85.600 63.780,85.600 64.000 C 85.600 64.567,89.342 64.498,89.920 63.920 C 90.293 63.547,90.507 63.547,90.880 63.920 C 91.510 64.550,94.979 64.537,96.058 63.900 C 96.735 63.500,96.941 63.500,97.086 63.900 C 97.312 64.525,100.864 64.576,101.477 63.963 C 101.793 63.647,102.140 63.647,102.731 63.963 C 103.832 64.552,106.922 64.518,107.530 63.910 C 107.917 63.523,108.185 63.523,108.805 63.910 C 109.236 64.180,110.087 64.397,110.695 64.394 C 111.482 64.390,111.641 64.287,111.247 64.038 C 110.496 63.562,111.995 63.070,113.009 63.459 C 113.493 63.645,113.639 63.587,113.453 63.285 C 112.748 62.145,118.084 58.702,123.400 56.867 C 135.566 52.668,158.792 52.941,170.703 57.424 C 173.421 58.447,175.200 58.675,175.200 58.000 C 175.200 57.780,175.020 57.600,174.800 57.600 C 174.580 57.600,174.400 57.240,174.400 56.800 C 174.400 56.360,174.580 56.000,174.800 56.000 C 175.044 56.000,175.200 54.133,175.200 51.200 C 175.200 48.267,175.356 46.400,175.600 46.400 C 175.842 46.400,176.000 44.667,176.000 42.000 L 176.000 37.600 133.220 37.600 C 98.823 37.600,90.377 37.701,90.120 38.114 M219.931 47.701 C 217.955 49.293,219.722 51.769,221.767 50.274 C 222.654 49.625,222.475 48.478,221.375 47.749 C 220.713 47.310,220.428 47.300,219.931 47.701 M218.818 54.978 C 218.554 55.296,218.397 55.971,218.469 56.478 C 218.664 57.850,221.338 57.841,221.532 56.468 C 221.752 54.912,219.774 53.826,218.818 54.978 M54.500 174.723 C 55.850 175.883,54.871 178.400,53.070 178.400 C 50.829 178.400,49.946 175.273,51.898 174.250 C 53.034 173.655,53.316 173.706,54.500 174.723 M61.801 175.746 C 63.317 178.058,60.346 180.348,58.546 178.255 C 57.649 177.213,57.640 176.426,58.511 175.300 C 59.177 174.439,61.117 174.702,61.801 175.746 M339.000 222.800 C 338.554 224.206,339.139 225.200,340.413 225.200 C 341.162 225.200,341.723 224.917,342.000 224.400 C 342.643 223.198,341.851 222.000,340.413 222.000 C 339.605 222.000,339.177 222.242,339.000 222.800 M346.166 223.345 C 345.591 224.843,346.151 225.800,347.600 225.800 C 349.691 225.800,349.782 223.075,347.697 222.874 C 346.824 222.790,346.319 222.945,346.166 223.345 M179.607 343.114 C 178.453 344.049,178.810 345.487,180.289 345.858 C 182.213 346.341,183.048 344.058,181.357 342.937 C 180.618 342.447,180.403 342.469,179.607 343.114 M178.818 350.178 C 177.914 351.268,178.467 352.587,179.886 352.724 C 180.982 352.830,181.211 352.696,181.431 351.819 C 181.884 350.015,179.957 348.805,178.818 350.178 " stroke="none" fill="#2c249c" fill-rule="evenodd"></path><path id="path3" d="M218.800 38.000 C 218.800 38.233,217.476 38.400,215.629 38.400 C 213.343 38.400,212.290 38.568,211.857 39.000 C 211.527 39.330,210.916 39.600,210.500 39.600 C 209.476 39.600,209.204 59.473,210.222 59.864 C 210.540 59.986,210.800 60.563,210.800 61.147 C 210.800 62.567,211.800 63.116,214.983 63.442 C 216.435 63.591,217.718 63.867,217.835 64.056 C 217.952 64.245,219.736 64.400,221.800 64.400 C 223.870 64.400,225.664 64.579,225.800 64.800 C 225.936 65.020,226.757 65.200,227.624 65.200 C 228.491 65.200,229.200 65.020,229.200 64.800 C 229.200 64.580,229.650 64.400,230.200 64.400 C 230.750 64.400,231.200 64.580,231.200 64.800 C 231.200 65.020,232.100 65.200,233.200 65.200 C 234.300 65.200,235.200 65.020,235.200 64.800 C 235.200 64.580,235.650 64.400,236.200 64.400 C 236.750 64.400,237.200 64.580,237.200 64.800 C 237.200 65.373,240.945 65.295,241.530 64.710 C 241.917 64.323,242.185 64.323,242.805 64.710 C 243.746 65.298,246.800 65.366,246.800 64.800 C 246.800 64.580,247.239 64.400,247.776 64.400 C 248.313 64.400,248.864 64.580,249.000 64.800 C 249.136 65.020,250.137 65.200,251.224 65.200 C 252.311 65.200,253.200 65.020,253.200 64.800 C 253.200 64.580,253.650 64.400,254.200 64.400 C 254.750 64.400,255.200 64.580,255.200 64.800 C 255.200 65.020,255.920 65.200,256.800 65.200 C 257.680 65.200,258.400 65.020,258.400 64.800 C 258.400 64.580,259.030 64.400,259.800 64.400 C 260.570 64.400,261.200 64.580,261.200 64.800 C 261.200 65.020,262.010 65.200,263.000 65.200 C 263.990 65.200,264.800 65.020,264.800 64.800 C 264.800 64.580,265.149 64.400,265.576 64.400 C 266.003 64.400,266.464 64.580,266.600 64.800 C 266.736 65.020,267.546 65.200,268.400 65.200 C 269.254 65.200,270.064 65.020,270.200 64.800 C 270.347 64.562,272.871 64.400,276.424 64.400 C 280.141 64.400,282.400 64.249,282.400 64.000 C 282.400 63.780,282.670 63.600,283.000 63.600 C 283.330 63.600,283.600 63.780,283.600 64.000 C 283.600 64.553,286.936 64.503,288.192 63.931 C 288.980 63.572,289.332 63.572,289.691 63.931 C 290.305 64.545,293.703 64.537,294.320 63.920 C 294.693 63.547,294.907 63.547,295.280 63.920 C 295.907 64.547,299.300 64.540,299.930 63.910 C 300.317 63.523,300.585 63.523,301.205 63.910 C 301.700 64.220,303.612 64.400,306.395 64.400 C 309.065 64.400,310.800 64.558,310.800 64.800 C 310.800 65.029,312.000 65.200,313.600 65.200 C 315.200 65.200,316.400 65.371,316.400 65.600 C 316.400 65.820,317.390 66.000,318.600 66.000 C 319.810 66.000,320.800 66.180,320.800 66.400 C 320.800 66.620,321.526 66.800,322.413 66.800 C 323.477 66.800,324.103 67.004,324.255 67.400 C 324.382 67.730,324.826 68.000,325.243 68.000 C 325.659 68.000,326.000 68.180,326.000 68.400 C 326.000 68.620,326.360 68.800,326.800 68.800 C 327.240 68.800,327.600 68.980,327.600 69.200 C 327.600 69.420,327.830 69.600,328.112 69.600 C 328.393 69.600,328.883 69.960,329.200 70.400 C 329.517 70.840,329.993 71.200,330.258 71.200 C 330.522 71.200,331.292 71.753,331.968 72.429 L 333.197 73.658 333.298 122.529 L 333.400 171.400 341.700 171.508 C 346.779 171.574,350.000 171.768,350.000 172.008 C 350.000 172.224,350.405 172.397,350.900 172.394 C 351.628 172.389,351.685 172.314,351.200 172.000 C 350.790 171.735,351.834 171.610,354.500 171.606 L 358.400 171.600 358.395 161.500 C 358.392 155.945,358.437 131.375,358.495 106.900 C 358.553 82.425,358.465 62.400,358.300 62.400 C 358.135 62.400,358.000 61.860,358.000 61.200 C 358.000 60.400,357.800 60.000,357.400 60.000 C 357.067 60.000,356.800 59.644,356.800 59.200 C 356.800 58.760,356.620 58.400,356.400 58.400 C 356.180 58.400,356.000 58.130,356.000 57.800 C 356.000 57.470,355.680 57.200,355.288 57.200 C 354.897 57.200,354.317 56.840,354.000 56.400 C 353.683 55.960,353.193 55.600,352.912 55.600 C 352.630 55.600,352.400 55.420,352.400 55.201 C 352.400 54.981,351.770 54.134,351.000 53.318 C 350.230 52.501,349.600 51.691,349.600 51.517 C 349.600 51.342,349.240 51.200,348.800 51.200 C 348.356 51.200,348.000 50.933,348.000 50.600 C 348.000 50.270,347.680 50.000,347.288 50.000 C 346.897 50.000,346.317 49.640,346.000 49.200 C 345.683 48.760,345.193 48.400,344.912 48.400 C 344.630 48.400,344.400 48.220,344.400 48.000 C 344.400 47.780,344.083 47.600,343.695 47.600 C 343.307 47.600,342.652 47.150,342.239 46.600 C 341.826 46.050,341.193 45.600,340.832 45.600 C 340.472 45.600,339.917 45.240,339.600 44.800 C 339.283 44.360,338.703 44.000,338.312 44.000 C 337.920 44.000,337.600 43.820,337.600 43.600 C 337.600 43.380,336.809 43.200,335.843 43.200 C 334.650 43.200,334.012 43.007,333.855 42.600 C 333.729 42.270,333.259 42.000,332.813 42.000 C 332.366 42.000,332.000 41.820,332.000 41.600 C 332.000 41.374,330.867 41.200,329.400 41.200 C 327.933 41.200,326.800 41.026,326.800 40.800 C 326.800 40.580,326.170 40.400,325.400 40.400 C 324.630 40.400,324.000 40.220,324.000 40.000 C 324.000 39.775,322.881 39.600,321.443 39.600 C 319.539 39.600,318.827 39.447,318.655 39.000 C 318.476 38.532,317.677 38.400,315.013 38.400 C 313.004 38.400,311.600 38.235,311.600 38.000 C 311.600 37.419,271.507 37.453,270.925 38.035 C 270.612 38.348,270.415 38.348,270.222 38.035 C 269.851 37.435,266.281 37.486,265.630 38.100 C 265.206 38.500,265.063 38.500,264.917 38.100 C 264.695 37.496,260.400 37.401,260.400 38.000 C 260.400 38.220,259.950 38.400,259.400 38.400 C 258.850 38.400,258.400 38.220,258.400 38.000 C 258.400 37.422,254.658 37.507,254.030 38.100 C 253.606 38.500,253.463 38.500,253.317 38.100 C 253.095 37.496,248.800 37.401,248.800 38.000 C 248.800 38.220,248.451 38.400,248.024 38.400 C 247.597 38.400,247.136 38.220,247.000 38.000 C 246.652 37.437,243.060 37.500,242.480 38.080 C 242.107 38.453,241.893 38.453,241.520 38.080 C 240.920 37.480,237.823 37.452,236.731 38.037 C 236.140 38.353,235.793 38.353,235.477 38.037 C 234.929 37.489,231.200 37.457,231.200 38.000 C 231.200 38.220,230.750 38.400,230.200 38.400 C 229.650 38.400,229.200 38.220,229.200 38.000 C 229.200 37.780,228.210 37.600,227.000 37.600 C 225.790 37.600,224.800 37.780,224.800 38.000 C 224.800 38.220,224.440 38.400,224.000 38.400 C 223.560 38.400,223.200 38.220,223.200 38.000 C 223.200 37.780,222.210 37.600,221.000 37.600 C 219.790 37.600,218.800 37.780,218.800 38.000 M298.869 45.062 C 300.619 46.646,299.140 50.400,296.766 50.400 C 295.549 50.400,293.600 48.444,293.600 47.223 C 293.600 44.928,297.123 43.483,298.869 45.062 M222.343 49.021 C 222.422 49.421,222.163 49.984,221.767 50.274 C 219.722 51.769,217.955 49.293,219.931 47.701 C 220.689 47.090,222.116 47.872,222.343 49.021 M248.546 49.229 C 250.370 50.663,249.867 53.461,247.618 54.393 C 244.488 55.689,242.165 50.624,245.146 49.005 C 246.598 48.216,247.318 48.263,248.546 49.229 M220.932 54.980 C 221.369 55.311,221.611 55.911,221.532 56.468 C 221.338 57.841,218.664 57.850,218.469 56.478 C 218.222 54.733,219.545 53.929,220.932 54.980 M279.818 56.582 C 282.285 59.049,279.482 62.623,276.238 61.145 C 274.476 60.342,274.403 56.910,276.132 56.074 C 277.570 55.379,278.782 55.546,279.818 56.582 M344.771 60.185 C 346.613 61.138,346.977 63.230,345.565 64.746 C 343.349 67.124,339.145 64.414,340.621 61.560 C 341.619 59.629,342.886 59.210,344.771 60.185 M343.500 83.596 C 345.820 85.010,344.779 89.200,342.108 89.200 C 338.943 89.200,337.831 85.223,340.536 83.574 C 342.079 82.633,341.919 82.632,343.500 83.596 M351.754 101.652 C 354.724 103.005,353.700 107.200,350.400 107.200 C 347.471 107.200,346.307 104.431,348.369 102.369 C 349.645 101.093,350.248 100.966,351.754 101.652 M344.800 120.000 C 346.720 121.920,345.392 124.800,342.587 124.800 C 340.531 124.800,339.818 124.069,339.818 121.960 C 339.818 119.391,342.956 118.156,344.800 120.000 M353.746 153.629 C 355.950 155.363,354.667 158.800,351.816 158.800 C 349.008 158.800,347.796 155.692,349.858 153.781 C 351.152 152.582,352.355 152.535,353.746 153.629 M343.196 155.116 C 345.241 156.772,343.865 160.400,341.191 160.400 C 340.112 160.400,338.000 158.513,338.000 157.549 C 338.000 155.028,341.223 153.519,343.196 155.116 " stroke="none" fill="#0cc33c" fill-rule="evenodd"></path><path id="path4" d="M72.600 37.200 C 72.464 37.420,71.553 37.600,70.576 37.600 C 69.599 37.600,68.800 37.780,68.800 38.000 C 68.800 38.220,68.003 38.400,67.029 38.400 C 65.987 38.400,65.010 38.647,64.657 39.000 C 64.327 39.330,63.782 39.600,63.447 39.600 C 62.889 39.600,60.800 41.365,60.800 41.836 C 60.800 42.134,58.878 44.000,58.572 44.000 C 58.017 44.000,55.600 46.991,55.600 47.678 C 55.600 48.075,55.330 48.400,55.000 48.400 C 54.670 48.400,54.399 48.535,54.398 48.700 C 54.397 48.865,53.902 49.548,53.298 50.217 C 51.417 52.302,50.403 54.855,52.149 53.108 C 52.473 52.784,53.868 52.416,55.268 52.285 C 61.736 51.681,69.189 49.598,75.200 46.715 C 81.607 43.643,89.517 39.082,90.120 38.114 C 90.377 37.701,98.827 37.600,133.243 37.600 C 161.677 37.600,175.964 37.466,175.800 37.200 C 175.458 36.647,72.942 36.647,72.600 37.200 M276.800 37.200 C 276.405 37.455,280.419 37.590,288.524 37.594 C 296.639 37.598,300.763 37.463,300.600 37.200 C 300.272 36.670,277.621 36.670,276.800 37.200 M301.400 37.200 C 301.245 37.450,302.070 37.600,303.600 37.600 C 305.130 37.600,305.955 37.450,305.800 37.200 C 305.664 36.980,304.674 36.800,303.600 36.800 C 302.526 36.800,301.536 36.980,301.400 37.200 M209.056 43.478 C 208.541 43.993,208.801 45.600,209.400 45.600 C 209.769 45.600,210.000 45.225,210.000 44.624 C 210.000 43.620,209.509 43.024,209.056 43.478 M294.429 45.454 C 293.337 46.843,293.383 47.681,294.636 49.169 C 296.556 51.452,299.600 50.205,299.600 47.136 C 299.600 44.399,296.143 43.275,294.429 45.454 M245.146 49.005 C 242.165 50.624,244.488 55.689,247.618 54.393 C 249.867 53.461,250.370 50.663,248.546 49.229 C 247.318 48.263,246.598 48.216,245.146 49.005 M208.875 50.500 C 208.944 51.215,209.180 51.800,209.400 51.800 C 209.620 51.800,209.856 51.215,209.925 50.500 C 210.020 49.515,209.893 49.200,209.400 49.200 C 208.907 49.200,208.780 49.515,208.875 50.500 M134.800 54.282 C 123.496 56.232,113.200 60.376,113.200 62.976 C 113.200 64.038,117.842 64.755,119.205 63.904 C 119.838 63.509,120.162 63.509,120.795 63.904 C 121.814 64.540,123.786 64.540,124.805 63.904 C 125.438 63.509,125.762 63.509,126.395 63.904 C 127.346 64.498,130.251 64.564,130.600 64.000 C 130.736 63.780,131.287 63.600,131.824 63.600 C 132.361 63.600,132.800 63.780,132.800 64.000 C 132.800 64.572,136.144 64.496,136.730 63.910 C 137.117 63.523,137.385 63.523,138.005 63.910 C 139.016 64.542,141.657 64.539,143.049 63.905 C 143.914 63.511,144.170 63.511,144.302 63.905 C 144.513 64.540,147.680 64.560,148.309 63.931 C 148.668 63.572,149.020 63.572,149.808 63.931 C 151.156 64.545,154.107 64.533,154.730 63.910 C 155.117 63.523,155.385 63.523,156.005 63.910 C 156.946 64.498,160.000 64.566,160.000 64.000 C 160.000 63.780,160.450 63.600,161.000 63.600 C 161.550 63.600,162.000 63.780,162.000 64.000 C 162.000 64.571,165.458 64.496,166.405 63.904 C 167.038 63.509,167.362 63.509,167.995 63.904 C 168.927 64.486,171.274 64.563,171.820 64.029 C 172.029 63.824,172.830 63.599,173.600 63.529 L 175.000 63.400 175.119 60.900 C 175.235 58.466,175.212 58.400,174.234 58.400 C 173.682 58.400,172.309 58.037,171.184 57.594 C 163.601 54.605,143.521 52.777,134.800 54.282 M276.132 56.074 C 274.403 56.910,274.476 60.342,276.238 61.145 C 277.763 61.840,278.741 61.696,279.818 60.618 C 282.302 58.134,279.363 54.511,276.132 56.074 M174.400 56.800 C 174.400 57.240,174.580 57.600,174.800 57.600 C 175.020 57.600,175.200 57.240,175.200 56.800 C 175.200 56.360,175.020 56.000,174.800 56.000 C 174.580 56.000,174.400 56.360,174.400 56.800 M341.900 60.032 C 339.282 61.557,340.077 65.304,343.065 65.521 C 346.505 65.772,347.792 61.747,344.771 60.185 C 343.452 59.503,342.862 59.472,341.900 60.032 M111.398 63.603 C 111.095 64.094,112.195 64.574,112.787 64.208 C 113.021 64.063,113.109 63.777,112.983 63.572 C 112.678 63.078,111.711 63.097,111.398 63.603 M358.669 69.064 C 358.524 69.209,358.408 87.794,358.410 110.364 C 358.413 132.934,358.412 155.945,358.408 161.500 L 358.400 171.600 354.500 171.606 C 351.834 171.610,350.790 171.735,351.200 172.000 C 351.530 172.213,353.555 172.391,355.700 172.394 L 359.600 172.400 359.600 120.600 C 359.600 92.110,359.450 68.800,359.267 68.800 C 359.083 68.800,358.815 68.919,358.669 69.064 M340.536 83.574 C 337.831 85.223,338.943 89.200,342.108 89.200 C 344.779 89.200,345.820 85.010,343.500 83.596 C 341.919 82.632,342.079 82.633,340.536 83.574 M41.200 105.567 C 41.200 121.176,41.309 125.573,41.700 125.717 C 42.100 125.863,42.100 126.006,41.700 126.430 C 41.022 127.149,41.022 130.925,41.700 130.702 C 41.975 130.611,42.259 130.132,42.332 129.637 C 42.405 129.141,42.808 128.392,43.228 127.972 C 44.090 127.110,47.574 120.043,48.638 117.000 C 51.276 109.449,48.286 93.165,43.268 87.762 C 42.878 87.343,42.439 86.685,42.292 86.300 C 41.354 83.843,41.200 86.561,41.200 105.567 M348.369 102.369 C 346.987 103.752,346.900 104.711,348.029 106.146 C 350.176 108.875,354.532 106.417,353.209 103.222 C 352.310 101.050,350.081 100.657,348.369 102.369 M66.725 119.288 C 66.624 120.330,66.194 120.860,64.484 122.052 C 58.717 126.072,57.842 128.736,57.670 142.800 C 57.470 159.086,58.437 161.862,65.130 164.214 C 66.159 164.575,67.296 165.024,67.657 165.212 C 68.018 165.399,68.423 165.444,68.557 165.310 C 68.965 164.902,68.827 162.000,68.400 162.000 C 68.180 162.000,68.000 161.370,68.000 160.600 C 68.000 159.830,68.180 159.200,68.400 159.200 C 68.620 159.200,68.800 158.390,68.800 157.400 C 68.800 156.410,68.620 155.600,68.400 155.600 C 68.180 155.600,68.000 155.251,68.000 154.824 C 68.000 154.397,68.180 153.936,68.400 153.800 C 68.620 153.664,68.800 152.663,68.800 151.576 C 68.800 150.489,68.620 149.600,68.400 149.600 C 68.180 149.600,68.000 149.150,68.000 148.600 C 68.000 148.050,68.180 147.600,68.400 147.600 C 68.967 147.600,68.898 143.858,68.320 143.280 C 67.947 142.907,67.947 142.693,68.320 142.320 C 68.898 141.742,68.967 138.000,68.400 138.000 C 68.180 138.000,68.000 137.550,68.000 137.000 C 68.000 136.450,68.180 136.000,68.400 136.000 C 68.620 136.000,68.800 135.111,68.800 134.024 C 68.800 132.937,68.620 131.936,68.400 131.800 C 68.180 131.664,68.000 131.203,68.000 130.776 C 68.000 130.349,68.180 130.000,68.400 130.000 C 68.620 130.000,68.800 129.190,68.800 128.200 C 68.800 127.210,68.620 126.400,68.400 126.400 C 68.163 126.400,68.000 124.944,68.000 122.833 C 68.000 118.362,67.068 115.770,66.725 119.288 M340.609 119.823 C 339.671 120.532,339.520 123.139,340.358 124.149 C 341.124 125.072,344.077 125.020,344.938 124.069 C 347.319 121.437,343.469 117.662,340.609 119.823 M41.473 131.860 C 41.323 132.010,41.200 132.568,41.200 133.100 C 41.200 134.207,42.120 134.146,42.338 133.024 C 42.491 132.234,41.898 131.435,41.473 131.860 M349.858 153.781 C 347.796 155.692,349.008 158.800,351.816 158.800 C 354.667 158.800,355.950 155.363,353.746 153.629 C 352.355 152.535,351.152 152.582,349.858 153.781 M339.692 154.668 C 339.412 154.780,338.917 155.387,338.592 156.016 C 337.102 158.896,340.664 161.734,343.196 159.684 C 345.867 157.521,342.956 153.354,339.692 154.668 M51.898 174.250 C 49.946 175.273,50.829 178.400,53.070 178.400 C 54.871 178.400,55.850 175.883,54.500 174.723 C 53.316 173.706,53.034 173.655,51.898 174.250 M58.511 175.300 C 57.640 176.426,57.649 177.213,58.546 178.255 C 60.346 180.348,63.317 178.058,61.801 175.746 C 61.117 174.702,59.177 174.439,58.511 175.300 M43.600 187.200 C 44.411 187.724,59.876 187.724,60.200 187.200 C 60.362 186.938,57.439 186.802,51.724 186.806 C 45.943 186.810,43.202 186.943,43.600 187.200 M345.400 212.800 C 345.255 213.034,345.670 213.200,346.400 213.200 C 347.130 213.200,347.545 213.034,347.400 212.800 C 347.264 212.580,346.814 212.400,346.400 212.400 C 345.986 212.400,345.536 212.580,345.400 212.800 M350.900 212.900 C 350.992 213.175,351.487 213.400,352.000 213.400 C 352.513 213.400,353.008 213.175,353.100 212.900 C 353.210 212.570,352.836 212.400,352.000 212.400 C 351.164 212.400,350.790 212.570,350.900 212.900 M336.500 213.977 C 335.450 214.853,335.365 215.200,336.200 215.200 C 336.530 215.200,336.800 215.020,336.800 214.800 C 336.800 214.580,337.700 214.400,338.800 214.400 C 340.311 214.400,340.800 214.253,340.800 213.800 C 340.800 212.895,337.641 213.026,336.500 213.977 M334.000 215.800 C 334.000 216.130,334.180 216.400,334.400 216.400 C 334.620 216.400,334.800 216.130,334.800 215.800 C 334.800 215.470,334.620 215.200,334.400 215.200 C 334.180 215.200,334.000 215.470,334.000 215.800 M333.200 219.600 C 333.200 220.700,333.380 221.600,333.600 221.600 C 333.820 221.600,334.000 220.700,334.000 219.600 C 334.000 218.500,333.820 217.600,333.600 217.600 C 333.380 217.600,333.200 218.500,333.200 219.600 M332.667 223.467 C 332.267 223.866,332.357 226.115,332.800 226.800 C 333.078 227.230,333.189 226.803,333.194 225.300 C 333.200 223.174,333.146 222.987,332.667 223.467 M41.200 228.250 C 41.200 228.765,41.460 228.848,42.450 228.650 C 43.138 228.513,44.308 228.400,45.050 228.400 C 45.793 228.400,46.400 228.220,46.400 228.000 C 46.400 227.774,45.267 227.600,43.800 227.600 C 41.667 227.600,41.200 227.717,41.200 228.250 M65.642 240.413 C 61.311 241.042,60.732 241.819,54.012 256.000 C 52.125 259.983,51.896 269.252,53.588 273.200 C 56.567 280.154,63.434 285.215,67.174 283.214 C 68.013 282.765,68.101 279.567,67.282 279.294 C 66.686 279.095,66.646 278.118,67.226 277.925 C 68.034 277.655,68.161 274.505,67.409 273.358 C 66.898 272.578,66.840 272.223,67.188 272.007 C 67.997 271.507,68.176 268.633,67.443 267.900 C 66.649 267.106,66.644 266.899,67.400 266.143 C 68.204 265.339,68.188 262.245,67.375 261.432 C 66.808 260.865,66.808 260.724,67.375 259.914 C 68.181 258.763,68.197 256.450,67.400 256.145 C 66.612 255.842,66.626 254.152,67.419 253.848 C 68.223 253.540,68.111 250.102,67.282 249.638 C 66.800 249.368,66.811 249.138,67.358 248.081 C 68.163 246.525,68.179 245.036,67.400 244.257 C 67.070 243.927,66.800 243.451,66.800 243.200 C 66.800 242.949,67.070 242.473,67.400 242.143 C 67.874 241.669,68.310 239.845,67.900 240.050 C 67.845 240.077,66.829 240.241,65.642 240.413 M47.517 313.976 C 46.451 314.316,44.008 315.866,43.583 316.471 C 43.463 316.641,42.923 316.847,42.383 316.929 C 40.996 317.139,40.587 324.400,41.961 324.400 C 42.892 324.400,43.178 324.788,44.021 327.200 C 45.268 330.762,48.992 331.822,53.088 329.781 C 60.664 326.005,55.522 311.416,47.517 313.976 M128.400 336.216 C 128.400 336.490,128.678 336.821,129.017 336.951 C 129.495 337.135,129.540 337.364,129.217 337.968 C 128.093 340.068,129.763 343.425,132.593 344.755 C 141.483 348.933,148.637 348.705,153.490 344.089 C 155.087 342.570,158.400 337.959,158.400 337.255 C 158.400 337.042,158.625 336.786,158.900 336.688 C 160.739 336.031,156.878 335.798,143.568 335.760 C 131.706 335.727,128.400 335.826,128.400 336.216 M224.869 342.169 C 224.941 342.750,225.180 343.219,225.400 343.212 C 225.998 343.194,225.883 341.494,225.269 341.290 C 224.898 341.166,224.778 341.431,224.869 342.169 M224.871 347.657 C 224.942 348.396,225.180 348.955,225.400 348.900 C 225.994 348.751,225.885 346.695,225.271 346.490 C 224.888 346.363,224.778 346.683,224.871 347.657 M84.200 351.015 C 83.320 351.338,82.179 351.820,81.665 352.087 C 80.273 352.810,77.556 356.231,77.202 357.708 C 77.032 358.419,76.762 359.315,76.603 359.700 C 76.352 360.308,76.560 360.400,78.186 360.400 C 79.316 360.400,80.295 360.638,80.657 361.000 C 81.075 361.418,82.098 361.600,84.029 361.600 C 85.553 361.600,86.800 361.760,86.800 361.956 C 86.800 362.921,128.006 363.761,128.595 362.808 C 128.752 362.555,128.117 362.379,126.924 362.344 C 125.866 362.313,121.220 362.178,116.600 362.044 L 108.200 361.800 108.071 360.445 C 107.456 354.012,92.328 348.035,84.200 351.015 M224.879 353.200 C 224.814 354.046,224.966 354.400,225.394 354.400 C 226.027 354.400,226.170 353.708,225.757 352.633 C 225.374 351.635,224.978 351.891,224.879 353.200 M224.000 360.200 C 224.000 361.410,224.180 362.400,224.400 362.400 C 224.620 362.400,224.800 361.410,224.800 360.200 C 224.800 358.990,224.620 358.000,224.400 358.000 C 224.180 358.000,224.000 358.990,224.000 360.200 M131.100 362.888 C 131.747 363.200,132.253 363.200,132.900 362.888 C 133.690 362.507,133.580 362.454,132.000 362.454 C 130.420 362.454,130.310 362.507,131.100 362.888 M136.936 362.877 C 137.721 363.163,138.338 363.161,138.936 362.872 C 139.659 362.522,139.474 362.455,137.800 362.459 C 135.955 362.463,135.888 362.495,136.936 362.877 M142.400 362.800 C 143.187 363.309,145.086 363.309,145.400 362.800 C 145.552 362.554,144.906 362.402,143.724 362.406 C 142.334 362.411,141.967 362.520,142.400 362.800 M148.200 362.800 C 148.514 363.307,150.015 363.307,150.800 362.800 C 151.239 362.516,150.937 362.411,149.676 362.406 C 148.628 362.402,148.050 362.557,148.200 362.800 M154.400 362.800 C 154.400 363.279,155.884 363.279,157.000 362.800 C 157.620 362.534,157.417 362.450,156.100 362.428 C 155.165 362.413,154.400 362.580,154.400 362.800 M160.000 362.800 C 160.330 363.013,160.960 363.188,161.400 363.188 C 161.840 363.188,162.470 363.013,162.800 362.800 C 163.231 362.521,162.837 362.412,161.400 362.412 C 159.963 362.412,159.569 362.521,160.000 362.800 M165.633 362.544 C 166.111 362.956,168.000 363.166,168.000 362.808 C 168.000 362.583,167.430 362.400,166.733 362.400 C 166.037 362.400,165.542 362.465,165.633 362.544 M172.400 362.800 C 172.400 363.020,172.839 363.200,173.376 363.200 C 173.913 363.200,174.464 363.020,174.600 362.800 C 174.744 362.567,174.337 362.400,173.624 362.400 C 172.951 362.400,172.400 362.580,172.400 362.800 " stroke="none" fill="#9aabc4" fill-rule="evenodd"></path></g></svg>